<svg width="1057" height="518" xmlns="http://www.w3.org/2000/svg">
 <defs>
  <filter id="svg_120_blur">
   <feGaussianBlur stdDeviation="0" in="SourceGraphic"/>
  </filter>
 </defs>
 <g>
  <title>Layer 1</title>
  <g stroke="null" id="freepik--background-complete--inject-2">
   <rect stroke="null" id="svg_1" transform="matrix(1.50305 -0.744996 1.00545 1.1137 -495.454 -58.9856)" fill="#f5f5f5" height="198.77" width="134.99" y="290.67232" x="124.9994"/>
   <polygon stroke="null" id="svg_2" fill="#e0e0e0" points="282.584600687027,281.94579458236694 280.28793931007385,292.5042357444763 179.41875290870667,281.7313780784607 181.71532273292542,271.1729063987732 282.584600687027,281.94579458236694 "/>
   <polygon stroke="null" id="svg_3" fill="#e0e0e0" points="231.7882902622223,244.2809386253357 246.25494980812073,245.8218321800232 230.2150480747223,319.40957021713257 215.73020005226135,317.8552794456482 231.7882902622223,244.2809386253357 "/>
   <path stroke="null" id="svg_4" fill="#e0e0e0" d="m138.96617,150.75536c0.14467,0.14739 -20.18108,10.42449 -45.40743,22.91243s-45.78718,22.51046 -45.93185,22.34967s20.18108,-10.42449 45.40743,-22.92583s45.69676,-22.49706 45.93185,-22.33627z"/>
   <path stroke="null" id="svg_5" fill="#e0e0e0" d="m213.50596,136.87391c0.14467,0.16079 -33.6713,17.09723 -75.5163,37.83901s-75.9503,37.42364 -76.0588,37.27625s33.63513,-17.11063 75.53438,-37.85241s75.89605,-37.42364 76.04071,-37.26285z"/>
   <path stroke="null" id="svg_6" fill="#e0e0e0" d="m228.46094,153.43518c0.14467,0.16079 -33.6713,17.11063 -75.5163,37.85241s-75.9503,37.42364 -76.0588,37.26285s33.6713,-17.09723 75.53438,-37.85241s75.89605,-37.42364 76.04071,-37.26285z"/>
   <path stroke="null" id="svg_7" fill="#e0e0e0" d="m243.41591,170.00984c0.14467,0.16079 -33.6713,17.11063 -75.5163,37.83901s-75.9503,37.43704 -75.9503,37.27625s33.65322,-17.11063 75.5163,-37.85241s75.80563,-37.42364 75.9503,-37.26285z"/>
   <path stroke="null" id="svg_8" fill="#e0e0e0" d="m258.31664,186.58451c0.14467,0.16079 -33.6713,17.09723 -75.5163,37.83901s-75.9503,37.42364 -76.04071,37.26285s33.70747,-17.09723 75.60671,-37.83901s75.9503,-37.42364 75.9503,-37.26285z"/>
   <rect stroke="null" id="svg_9" transform="matrix(1.50305 -0.744996 1.00545 1.1137 -716.972 1.0142)" fill="#f5f5f5" height="166.93" width="113.37" y="622.1823" x="523.62941"/>
   <polygon stroke="null" id="svg_10" fill="#e0e0e0" points="945.8476622104645,396.5347228050232 943.9127867221832,405.40490102767944 859.1921446323395,396.36049795150757 861.1450865268707,387.4903197288513 945.8476622104645,396.5347228050232 "/>
   <polygon stroke="null" id="svg_11" fill="#e0e0e0" points="903.1889708042145,364.8994688987732 915.3410704135895,366.19921255111694 901.8688414096832,427.99572134017944 889.6987974643707,426.69603872299194 903.1889708042145,364.8994688987732 "/>
   <path stroke="null" id="svg_12" fill="#e0e0e0" d="m825.15903,286.42108c0.14467,0.16079 -16.90798,8.8032 -38.10173,19.29468s-38.48148,18.87931 -38.62615,18.75872s16.92607,-8.7898 38.10173,-19.29468s38.48148,-18.9865 38.62615,-18.75872z"/>
   <path stroke="null" id="svg_13" fill="#e0e0e0" d="m887.81802,274.69688c0.14467,0.16079 -28.22819,14.41741 -63.29191,31.82282s-63.76208,31.42085 -63.90675,31.26006s28.22819,-14.41741 63.29191,-31.83622s63.70783,-31.40745 63.90675,-31.24666z"/>
   <path stroke="null" id="svg_14" fill="#e0e0e0" d="m900.38599,288.60513c0.14467,0.16079 -28.22819,14.41741 -63.29191,31.83622s-63.76208,31.40745 -63.90675,31.24666s28.13778,-14.35042 63.29191,-31.76923s63.79825,-31.46105 63.90675,-31.31366z"/>
   <path stroke="null" id="svg_15" fill="#e0e0e0" d="m912.93587,302.49998c0.14467,0.16079 -28.24628,14.41741 -63.29191,31.83622s-63.76208,31.40745 -63.90675,31.24666s28.22819,-14.40401 63.29191,-31.83622s63.78017,-31.38065 63.90675,-31.24666z"/>
   <path stroke="null" id="svg_16" fill="#e0e0e0" d="m925.59425,316.44842c0.14467,0.16079 -28.22819,14.40401 -63.29191,31.82282s-63.76208,31.40745 -63.90675,31.26006s28.22819,-14.41741 63.29191,-31.83622s63.67167,-31.40745 63.90675,-31.24666z"/>
   <rect stroke="null" id="svg_17" transform="matrix(1.59459 0.631938 -0.852863 1.18153 -399.907 -125.132)" fill="#f5f5f5" height="171.69" width="116.6" y="-125.39456" x="441.17564"/>
   <polygon stroke="null" id="svg_18" fill="#e0e0e0" points="418.2101194858551,218.5814757347107 406.4197447299957,221.56952810287476 376.4735472202301,160.24189138412476 388.28207993507385,157.24050283432007 418.2101194858551,218.5814757347107 "/>
   <polygon stroke="null" id="svg_19" fill="#e0e0e0" points="436.29355454444885,174.5789122581482 440.5973265171051,183.38211965560913 358.3902037143707,204.24448537826538 354.0863401889801,195.44130849838257 436.29355454444885,174.5789122581482 "/>
   <path stroke="null" id="svg_20" fill="#e0e0e0" d="m494.7029,84.09492c-0.14467,0.20099 -18.98757,-7.06132 -42.11625,-16.21289s-41.7365,-16.74885 -41.59183,-16.94984s19.00566,7.06132 42.13433,16.21289s41.71841,16.73545 41.57375,16.94984z"/>
   <path stroke="null" id="svg_21" fill="#e0e0e0" d="m539.33274,120.58063c-0.14467,0.20099 -31.35662,-11.96538 -69.71152,-27.15994s-69.31369,-27.68251 -69.16902,-27.88349s31.33854,11.95198 69.69344,27.15994s69.33177,27.68251 69.1871,27.88349z"/>
   <path stroke="null" id="svg_22" fill="#e0e0e0" d="m528.3742,135.76179c-0.14467,0.20099 -31.35662,-11.95198 -69.71152,-27.15994s-69.31369,-27.68251 -69.16902,-27.88349s31.33854,11.96538 69.69344,27.15994s69.33177,27.68251 69.1871,27.88349z"/>
   <path stroke="null" id="svg_23" fill="#e0e0e0" d="m517.41565,150.94295c-0.14467,0.20099 -31.35662,-11.95198 -69.71152,-27.14654s-69.31369,-27.64231 -69.16902,-27.88349s31.33854,11.95198 69.69344,27.14654s69.33177,27.68251 69.1871,27.88349z"/>
   <path stroke="null" id="svg_24" fill="#e0e0e0" d="m506.45711,166.12411c-0.14467,0.20099 -31.35662,-11.95198 -69.71152,-27.14654s-69.33177,-27.68251 -69.16902,-27.88349s31.33854,11.95198 69.69344,27.14654s69.33177,27.68251 69.1871,27.88349z"/>
  </g>
  <g id="freepik--Lamp--inject-2">
   <path id="svg_26" fill="#FF725E" d="m477.23247,96.19l120.46,0s-11.12,-53.19 -61.14,-53.19c-44.49,0 -59.32,53.19 -59.32,53.19z"/>
   <rect y="-1" id="svg_27" fill="#FF725E" height="43.98" width="2.58" x="536.17247"/>
  </g>
  <g stroke="null" id="freepik--Floor--inject-2">
   <path stroke="null" id="svg_28" fill="#263238" d="0"/>
  </g>
  <g id="freepik--Plant--inject-2">
   <path id="svg_29" fill="#FF725E" d="m168.29213,373.19983a12.62,12.62 0 0 1 8.78,4.5a22.15,22.15 0 0 1 4.47,9c1.69,6.32 0.65,13.79 -1.15,20.08c-6.84,-2.45 -11.07,-9.75 -13,-13.59c-3,-6.06 -4.79,-18.86 0.87,-20"/>
   <path id="svg_30" fill="#FF725E" d="m190.24213,414.44983a10.74,10.74 0 0 1 -0.5,-10.78a14.26,14.26 0 0 1 8.6,-6.91c1.67,-0.52 3.61,-0.73 5.06,0.24a4.58,4.58 0 0 1 1.77,4.31a9.27,9.27 0 0 1 -2,4.42c-3.33,4.51 -7.37,8.26 -13,8.72"/>
   <path id="svg_31" fill="#263238" d="m191.00213,435.57983a6.5,6.5 0 0 1 -0.31,-1.31c-0.18,-0.94 -0.42,-2.15 -0.71,-3.6a37.77,37.77 0 0 1 -0.74,-12.11a23,23 0 0 1 4.49,-11.21a15.32,15.32 0 0 1 2.59,-2.63a9.16,9.16 0 0 1 0.82,-0.58a1.15,1.15 0 0 1 0.3,-0.18a25.37,25.37 0 0 0 -3.45,3.59a23.85,23.85 0 0 0 -4.28,11.08c-0.64,4.66 0.15,8.93 0.61,12c0.24,1.53 0.44,2.77 0.55,3.63a8.23,8.23 0 0 1 0.13,1.32z"/>
   <path id="svg_32" fill="#263238" d="m170.49213,382.82983a2.34,2.34 0 0 1 0.28,0.51c0.18,0.4 0.42,0.9 0.7,1.53c0.61,1.33 1.46,3.26 2.49,5.65c2.06,4.79 4.82,11.45 7.7,18.87s5.33,14.19 7,19.12c0.86,2.46 1.53,4.46 2,5.85c0.21,0.66 0.37,1.19 0.5,1.6a2.61,2.61 0 0 1 0.15,0.57a2.46,2.46 0 0 1 -0.24,-0.54c-0.15,-0.4 -0.34,-0.92 -0.59,-1.57l-2.11,-5.8c-1.79,-4.89 -4.29,-11.65 -7.16,-19.06s-5.59,-14.09 -7.57,-18.91c-1,-2.37 -1.77,-4.3 -2.34,-5.71c-0.26,-0.64 -0.47,-1.15 -0.63,-1.56a3.49,3.49 0 0 1 -0.18,-0.55z"/>
   <path id="svg_33" fill="#FF725E" d="m182.87213,421.59983a25.18,25.18 0 0 0 -19.52,-12.13c-2,-0.14 -4.46,0.2 -5.36,2s0.3,4 1.68,5.46a21.49,21.49 0 0 0 23.27,5.2"/>
   <path id="svg_34" fill="#263238" d="m166.43213,414.88983a7.15,7.15 0 0 1 1.27,0.05a12.09,12.09 0 0 1 1.47,0.17c0.57,0.11 1.24,0.17 1.94,0.37a19.41,19.41 0 0 1 2.31,0.64a22.91,22.91 0 0 1 2.57,1a27.8,27.8 0 0 1 5.42,3.21a27.31,27.31 0 0 1 4.48,4.44a22.49,22.49 0 0 1 1.57,2.25a21.93,21.93 0 0 1 1.18,2.09a17.4,17.4 0 0 1 0.8,1.8a11.34,11.34 0 0 1 0.51,1.4a6.82,6.82 0 0 1 0.33,1.23c-0.11,0 -0.59,-1.72 -1.94,-4.28a22,22 0 0 0 -1.21,-2a25.32,25.32 0 0 0 -1.58,-2.19a26.65,26.65 0 0 0 -9.74,-7.52c-0.87,-0.38 -1.7,-0.74 -2.51,-1a21.87,21.87 0 0 0 -2.27,-0.69c-2.8,-0.77 -4.61,-0.86 -4.6,-0.97z"/>
  </g>
  <path id="svg_35" fill="#263238" d="m753.69744,100.15055c-2.94,0.67 -4.37,4.06 -4.65,7.06s0.1,6.18 -1.16,8.92c-1.42,3.08 -4.81,5.36 -4.92,8.75c-0.07,2.07 1.16,4 1.1,6.09c-0.1,3.4 -3.56,6 -3.75,9.36c-0.13,2.45 1.5,4.79 1.11,7.21c-0.3,1.88 -1.77,3.36 -2.39,5.16c-1.23,3.6 1.24,7.55 4.45,9.57a14.59,14.59 0 0 0 21.25,-6.78c1.78,-4.32 1.39,-9.19 1,-13.84q-1.8,-21.76 -2.68,-43.58"/>
  <path id="svg_36" fill="#455a64" d="m745.15744,151.33055a3.41,3.41 0 0 0 1.35,-1.59a5.79,5.79 0 0 0 0.34,-2.45a13.47,13.47 0 0 0 -0.73,-3.23a9.31,9.31 0 0 1 -0.52,-4.1c0.25,-1.56 1.37,-2.84 2.38,-4.1a8.77,8.77 0 0 0 1.35,-2.05a3.31,3.31 0 0 0 0.16,-2.4c-0.52,-1.63 -2.12,-2.83 -2.85,-4.72a5,5 0 0 1 -0.16,-2.92a11.59,11.59 0 0 1 1,-2.61a22.41,22.41 0 0 0 2,-4.71c0.7,-3.17 0.37,-6.2 0.85,-8.69a9.62,9.62 0 0 1 2.53,-5.32a5.81,5.81 0 0 1 1.32,-1a2.07,2.07 0 0 1 0.53,-0.19a7.69,7.69 0 0 0 -1.71,1.28a9.78,9.78 0 0 0 -2.31,5.25a32.58,32.58 0 0 0 -0.28,4a24.63,24.63 0 0 1 -0.46,4.69a22.46,22.46 0 0 1 -2,4.82c-0.75,1.57 -1.44,3.41 -0.78,5.13s2.25,2.91 2.86,4.75a3.88,3.88 0 0 1 -0.19,2.75a9.46,9.46 0 0 1 -1.5,2.25c-1,1.26 -2.09,2.46 -2.33,3.86a9,9 0 0 0 0.46,3.93a13.62,13.62 0 0 1 0.66,3.32a5.61,5.61 0 0 1 -0.45,2.54a3.06,3.06 0 0 1 -1,1.26a1.58,1.58 0 0 1 -0.52,0.25z"/>
  <path id="svg_37" fill="#b78876" d="m737.33744,175.04055l-9,26l-37.64,2l-6.28,14l39.3,4a14.85,14.85 0 0 0 19.62,-8.73l10.49,-29.28l-16.49,-7.99z"/>
  <path id="svg_38" fill="#b78876" d="m815.14744,420.37055s-27.58,-87.62 -28.17,-90.46c-0.53,-2.58 10,-65.63 11.34,-82l-37.27,1.39l0,0.37l-15.84,0.88l14.18,179.12l17.15,0l-1.7,-59.45c10.58,28.39 25.74,57.33 25.74,57.33l14.57,-7.18z"/>
  <path id="svg_39" fill="#a36957" d="m775.53744,391.55055c0,-0.54 -0.21,-19.92 -0.21,-19.92c-0.21,1.16 -6.57,-16.82 -6.42,-17.91c0.08,-0.57 6.63,37.83 6.63,37.83z"/>
  <path id="svg_40" fill="#a36957" d="m768.18744,345.20055a3.88,3.88 0 0 0 -0.11,1.09a27.15,27.15 0 0 0 0,3c0,0.63 0.09,1.31 0.17,2.05s0.19,1.52 0.36,2.33a41.36,41.36 0 0 0 1.41,5.22c1.24,3.63 2.62,6.8 3.59,9.1c0.46,1 0.86,1.95 1.2,2.71a4.32,4.32 0 0 0 0.5,1a3.79,3.79 0 0 0 -0.3,-1c-0.23,-0.66 -0.58,-1.61 -1,-2.78c-0.88,-2.34 -2.2,-5.54 -3.43,-9.13a43.34,43.34 0 0 1 -1.43,-5.14c-0.18,-0.8 -0.3,-1.57 -0.41,-2.29s-0.19,-1.4 -0.24,-2c-0.12,-1.24 -0.17,-2.24 -0.2,-2.94a4.52,4.52 0 0 0 -0.11,-1.22z"/>
  <path id="svg_41" fill="#455a64" d="m759.06744,430.58055l0,-1.61l17.57,-0.77l0.05,6.65l-1.08,0.07c-4.83,0.28 -24.55,1.1 -27.77,0.13c-3.61,-1.08 11.23,-4.47 11.23,-4.47z"/>
  <path id="svg_42" fill="#263238" d="m776.91744,434.45055a2.29,2.29 0 0 1 -0.3,0l-0.86,0.06l-3.18,0.14c-2.68,0.11 -6.39,0.21 -10.48,0.23s-7.81,-0.05 -10.5,-0.13l-3.17,-0.13l-0.87,0l-0.3,0a1.85,1.85 0 0 1 0.3,0l0.87,0l3.18,0.06c2.68,0 6.39,0.08 10.48,0.06s7.81,-0.09 10.49,-0.16l3.18,-0.08l1.16,0l0,-0.05z"/>
  <path id="svg_43" fill="#263238" d="m753.33744,435.01055a7.67,7.67 0 0 0 -0.6,-1.51a7.21,7.21 0 0 0 -1.09,-1.21a2.32,2.32 0 0 1 1.27,1.1a2.39,2.39 0 0 1 0.42,1.62z"/>
  <path id="svg_44" fill="#263238" d="m758.51744,432.38055s-0.29,-0.27 -0.55,-0.67s-0.42,-0.75 -0.37,-0.78s0.29,0.26 0.55,0.66s0.42,0.76 0.37,0.79z"/>
  <path id="svg_45" fill="#263238" d="m759.93744,431.67055c0,0.05 -0.32,-0.14 -0.62,-0.41s-0.52,-0.52 -0.48,-0.56s0.32,0.14 0.62,0.41s0.52,0.47 0.48,0.56z"/>
  <path id="svg_46" fill="#263238" d="m760.82744,429.97055a2.11,2.11 0 0 1 -0.92,0.12a2,2 0 0 1 -0.91,-0.09a2.08,2.08 0 0 1 0.91,-0.12a2,2 0 0 1 0.92,0.09z"/>
  <path id="svg_47" fill="#263238" d="m761.12744,428.81055a1.86,1.86 0 0 1 -1,0.3a1.89,1.89 0 0 1 -1,-0.14a5.77,5.77 0 0 1 1,-0.08a5.19,5.19 0 0 1 1,-0.08z"/>
  <path id="svg_48" fill="#263238" d="m757.92744,430.85055a3.07,3.07 0 0 1 -1.13,0a6.46,6.46 0 0 1 -1.19,-0.26a3.23,3.23 0 0 1 -0.69,-0.28a0.63,0.63 0 0 1 -0.28,-0.35a0.44,0.44 0 0 1 0.17,-0.45a2.08,2.08 0 0 1 2.92,1.35a0.76,0.76 0 0 1 0,0.3a3.22,3.22 0 0 0 -0.52,-1a2.06,2.06 0 0 0 -1,-0.62a1.78,1.78 0 0 0 -1.34,0.1c-0.17,0.13 -0.1,0.34 0.09,0.46a3.61,3.61 0 0 0 0.64,0.27a8.41,8.41 0 0 0 1.15,0.29c0.75,0.16 1.18,0.16 1.18,0.19z"/>
  <path id="svg_49" fill="#263238" d="m757.63744,430.91055a1.06,1.06 0 0 1 -0.14,-0.78a1.86,1.86 0 0 1 0.31,-0.82a1.14,1.14 0 0 1 0.93,-0.58a0.46,0.46 0 0 1 0.35,0.52a1.19,1.19 0 0 1 -0.19,0.5a4.13,4.13 0 0 1 -0.53,0.69a1.64,1.64 0 0 1 -0.64,0.45s0.22,-0.2 0.53,-0.56a3.88,3.88 0 0 0 0.47,-0.67c0.15,-0.24 0.26,-0.67 0,-0.72s-0.56,0.26 -0.73,0.48a1.83,1.83 0 0 0 -0.32,0.73a3.52,3.52 0 0 0 -0.04,0.76z"/>
  <path id="svg_50" fill="#263238" d="m776.54744,429.67055s-0.5,0 -1.29,0.05a5.54,5.54 0 0 0 -4.57,3.67c-0.26,0.75 -0.28,1.26 -0.32,1.25s0,-0.13 0,-0.35a4.48,4.48 0 0 1 0.18,-0.95a5.47,5.47 0 0 1 1.76,-2.61a5.39,5.39 0 0 1 2.93,-1.15a4.19,4.19 0 0 1 1,0a1.26,1.26 0 0 1 0.31,0.09z"/>
  <path id="svg_51" fill="#263238" d="m768.13744,433.05055a9.81,9.81 0 0 1 -2.56,0.25a9.43,9.43 0 0 1 -2.55,-0.22c0,-0.06 1.14,0 2.55,0s2.55,-0.09 2.56,-0.03z"/>
  <path id="svg_52" fill="#263238" d="m771.55744,433.02055s-0.09,0.24 -0.21,0.5s-0.18,0.5 -0.24,0.49s-0.09,-0.27 0.05,-0.58s0.36,-0.46 0.4,-0.41z"/>
  <path id="svg_53" fill="#263238" d="m772.84744,431.41055s-0.07,0.22 -0.25,0.4s-0.36,0.3 -0.41,0.26s0.07,-0.22 0.25,-0.41s0.36,-0.3 0.41,-0.25z"/>
  <path id="svg_54" fill="#263238" d="m774.68744,430.67055c0,0.06 -0.24,0.06 -0.5,0.15s-0.44,0.23 -0.49,0.19s0.1,-0.28 0.42,-0.39s0.59,-0.01 0.57,0.05z"/>
  <path id="svg_55" fill="#263238" d="m775.99744,430.31055c0,0.06 -0.07,0.15 -0.22,0.2s-0.28,0.06 -0.3,0s0.08,-0.15 0.22,-0.2s0.28,-0.05 0.3,0z"/>
  <path id="svg_56" fill="#455a64" d="m800.22744,429.03055l-0.66,-1.47l15.71,-7.89l2.77,6l-1,0.51c-4.29,2.23 -21.94,11.05 -25.28,11.49c-3.69,0.53 8.46,-8.64 8.46,-8.64z"/>
  <path id="svg_57" fill="#263238" d="m818.10744,425.24055l-0.26,0.16l-0.77,0.4l-2.84,1.44c-2.4,1.19 -5.74,2.8 -9.47,4.5s-7.15,3.15 -9.63,4.18l-2.95,1.19l-0.8,0.31a1.14,1.14 0 0 1 -0.29,0.09l0.27,-0.13l0.79,-0.35l2.92,-1.25c2.47,-1.06 5.87,-2.54 9.6,-4.24s7.08,-3.28 9.5,-4.44l2.86,-1.37l0.79,-0.37l0.28,-0.12z"/>
  <path id="svg_58" fill="#263238" d="m796.85744,435.41055a7.38,7.38 0 0 0 -1.17,-1.14a6.94,6.94 0 0 0 -1.49,-0.66a2.81,2.81 0 0 1 2.66,1.8z"/>
  <path id="svg_59" fill="#263238" d="m800.46744,430.89055s-0.38,-0.12 -0.78,-0.38s-0.69,-0.51 -0.66,-0.56s0.38,0.12 0.78,0.38s0.69,0.51 0.66,0.56z"/>
  <path id="svg_60" fill="#263238" d="m801.44744,429.67055c0,0.05 -0.34,0 -0.73,-0.12s-0.68,-0.27 -0.67,-0.33a1.49,1.49 0 0 1 0.74,0.12c0.38,0.09 0.68,0.23 0.66,0.33z"/>
  <path id="svg_61" fill="#263238" d="m801.58744,427.75055c0,0.06 -0.33,0.27 -0.79,0.49a2.11,2.11 0 0 1 -0.87,0.29c0,-0.06 0.33,-0.27 0.78,-0.49a2.18,2.18 0 0 1 0.88,-0.29z"/>
  <path id="svg_62" fill="#263238" d="m801.38744,426.57055s-0.29,0.4 -0.81,0.69a1.74,1.74 0 0 1 -1,0.3a5.28,5.28 0 0 1 0.91,-0.49c0.49,-0.27 0.85,-0.55 0.9,-0.5z"/>
  <path id="svg_63" fill="#263238" d="m799.33744,429.75055a3.24,3.24 0 0 1 -1,0.46a7.85,7.85 0 0 1 -1.2,0.25a3,3 0 0 1 -0.74,0a0.59,0.59 0 0 1 -0.4,-0.2a0.44,0.44 0 0 1 0,-0.48a2.06,2.06 0 0 1 2.57,-0.5a2,2 0 0 1 0.64,0.53c0.12,0.16 0.17,0.26 0.16,0.27a3,3 0 0 0 -0.87,-0.67a2,2 0 0 0 -1.13,-0.17a1.75,1.75 0 0 0 -1.18,0.64c-0.11,0.19 0,0.35 0.27,0.38a4,4 0 0 0 0.69,0a7.9,7.9 0 0 0 1.18,-0.21c0.57,-0.16 1.01,-0.33 1.01,-0.3z"/>
  <path id="svg_64" fill="#263238" d="m799.05744,429.92055a1.11,1.11 0 0 1 -0.44,-0.66a1.88,1.88 0 0 1 -0.06,-0.87a1.13,1.13 0 0 1 0.62,-0.91c0.25,-0.08 0.83,0.43 0.87,0.62s-0.29,0.09 -0.31,0.25a3.48,3.48 0 0 1 -0.2,0.83a1.56,1.56 0 0 1 -0.4,0.68s0.12,-0.27 0.26,-0.72a5.12,5.12 0 0 0 0.15,-0.81c0,-0.28 0,-0.71 -0.32,-0.64s-0.41,0.46 -0.48,0.74a1.73,1.73 0 0 0 0,0.79a4.36,4.36 0 0 0 0.31,0.7z"/>
  <path id="svg_65" fill="#263238" d="m815.80744,421.03055s-0.48,0.17 -1.16,0.58a5.58,5.58 0 0 0 -2.09,2.22a5.63,5.63 0 0 0 -0.57,3c0.06,0.8 0.25,1.26 0.21,1.28a1.27,1.27 0 0 1 -0.15,-0.32a5.18,5.18 0 0 1 -0.21,-0.94a5.29,5.29 0 0 1 2.73,-5.36a4.75,4.75 0 0 1 0.89,-0.38a1.23,1.23 0 0 1 0.35,-0.08z"/>
  <path id="svg_66" fill="#263238" d="m809.51744,427.57055a14.28,14.28 0 0 1 -4.65,2.12c0,-0.06 1.05,-0.46 2.33,-1s2.29,-1.17 2.32,-1.12z"/>
  <path id="svg_67" fill="#263238" d="m812.62744,426.14055c0.05,0 0,0.25 0,0.54s0,0.53 0,0.55s-0.2,-0.22 -0.2,-0.55s0.15,-0.57 0.2,-0.54z"/>
  <path id="svg_68" fill="#263238" d="m813.13744,424.14055c0.05,0 0,0.23 -0.06,0.47s-0.21,0.42 -0.26,0.4s0,-0.23 0.06,-0.47s0.2,-0.42 0.26,-0.4z"/>
  <path id="svg_69" fill="#263238" d="m814.51744,422.67055c0,0.06 -0.2,0.15 -0.4,0.34s-0.31,0.39 -0.36,0.37s0,-0.3 0.22,-0.53s0.53,-0.18 0.54,-0.18z"/>
  <path id="svg_70" fill="#263238" d="m815.56744,421.85055s0,0.16 -0.12,0.27s-0.23,0.17 -0.27,0.13s0,-0.16 0.12,-0.27s0.23,-0.17 0.27,-0.13z"/>
  <path id="svg_71" fill="#FF725E" d="m795.89744,218.31055l-2.92,-35.7l15,0.27s0.69,-5.27 -1.52,-16.81c-1.36,-7.08 -6.07,-11.42 -11.36,-14l0,-0.1l-0.46,-0.12a42.83,42.83 0 0 0 -13.76,-3.59l-18.45,0.21s-14.09,-1.8 -21.86,8.29c-3,3.87 -12.31,30.36 -12.31,30.36l22.15,10.66l-2.07,-14.69s0.42,10.65 1.78,14c0.75,1.88 3,7.72 3,7.72l-0.29,17.62l43.07,-4.12z"/>
  <polygon id="svg_72" fill="#FF725E" points="785.7274720668793,177.4305419921875 782.9874818325043,189.09054565429688 808.8174378871918,189.09054565429688 807.1174867153168,169.5305633544922 785.7274720668793,177.4305419921875 "/>
  <path id="svg_73" fill="#263238" d="m808.81744,189.09055a20.7,20.7 0 0 0 -3.42,-0.34c-2.12,-0.12 -5,-0.23 -8.28,-0.21s-6.17,0.16 -8.29,0.32a19.6,19.6 0 0 0 -3.41,0.42a21.66,21.66 0 0 0 3.44,0c2.11,-0.07 5,-0.15 8.26,-0.16s6.15,0 8.27,0.05a21.65,21.65 0 0 0 3.43,-0.08z"/>
  <path id="svg_74" fill="#263238" d="m784.60744,169.44055a15.57,15.57 0 0 0 -0.08,3c0,1.83 0.08,4.35 0.19,7.14s0.24,5.32 0.36,7.14a14.9,14.9 0 0 0 0.32,3a15.64,15.64 0 0 0 0.08,-3c0,-1.83 -0.08,-4.36 -0.19,-7.15s-0.24,-5.31 -0.36,-7.14a14.71,14.71 0 0 0 -0.32,-2.99z"/>
  <g id="svg_75" opacity="0.3">
   <path id="svg_76" d="m761.10744,179.54055s5.74,42.57 21.88,41.44c0,0 7.27,-0.08 9.6,-4.91l0,-1.9l-31.48,-34.63z"/>
  </g>
  <g id="svg_77" opacity="0.3">
   <polygon id="svg_78" points="784.6074769496918,171.9505615234375 781.517450094223,192.82054138183594 783.517450094223,196.4805450439453 786.8174378871918,189.32054138183594 785.4174745082855,189.28054809570312 784.6074769496918,171.9505615234375 "/>
  </g>
  <path id="svg_79" fill="#263238" d="m753.02744,204.83055a4,4 0 0 1 -0.44,-1c-0.25,-0.65 -0.58,-1.6 -1,-2.79a86.11,86.11 0 0 1 -2.47,-9.45a67,67 0 0 1 -1.22,-9.69c-0.06,-1.25 -0.08,-2.26 -0.06,-3a4,4 0 0 1 0.07,-1.08c0.08,0 0.14,1.54 0.35,4a89,89 0 0 0 1.37,9.61c0.74,3.72 1.63,7.05 2.31,9.44c0.32,1.11 0.59,2.06 0.81,2.84a4.89,4.89 0 0 1 0.28,1.12z"/>
  <path id="svg_80" fill="#263238" d="m759.54744,217.06055c-0.14,0 -0.54,-0.87 -0.89,-2a4.8,4.8 0 0 1 -0.39,-2.2a5.22,5.22 0 0 1 0.89,2.05a5,5 0 0 1 0.39,2.15z"/>
  <path id="svg_81" fill="#263238" d="m761.77744,216.90055a9.2,9.2 0 0 1 -0.09,-6.24a20.81,20.81 0 0 1 0,3.12a20.56,20.56 0 0 1 0.09,3.12z"/>
  <path id="svg_82" fill="#263238" d="m750.85744,198.27055c-0.07,0.12 -5.22,-2.32 -11.51,-5.46s-11.34,-5.8 -11.28,-5.93s5.22,2.32 11.51,5.46s11.34,5.8 11.28,5.93z"/>
  <path id="svg_83" fill="#b78876" d="m759.93744,151.92055c0.11,-5.06 0.14,-10.38 0.14,-10.38s-6.49,-1.25 -7.62,-9.79c-1.08,-8.14 1.94,-27.25 1.94,-27.25l0,0c9.48,-3.58 19.33,-0.33 25.82,7.35l0,0l-1.61,41.07c-0.19,4.77 -4.44,8.41 -9.54,8.17l0,0c-5.16,-0.25 -9.24,-4.35 -9.13,-9.17z"/>
  <path id="svg_84" fill="#263238" d="m753.89744,119.77055a1.1,1.1 0 0 0 1,1.13a1.05,1.05 0 0 0 1.15,-1a1.09,1.09 0 0 0 -1,-1.12a1,1 0 0 0 -1.15,0.99z"/>
  <path id="svg_85" fill="#263238" d="m753.49744,118.34055c0.13,0.14 1,-0.45 2.15,-0.41s2,0.64 2.14,0.5s-0.06,-0.32 -0.43,-0.61a3,3 0 0 0 -1.72,-0.57a2.81,2.81 0 0 0 -1.71,0.5c-0.37,0.27 -0.5,0.52 -0.43,0.59z"/>
  <path id="svg_86" fill="#263238" d="m765.80744,120.51055a1.09,1.09 0 0 0 1,1.13a1,1 0 0 0 1.15,-1a1.08,1.08 0 0 0 -1,-1.12a1,1 0 0 0 -1.15,0.99z"/>
  <path id="svg_87" fill="#263238" d="m765.72744,119.08055c0.13,0.15 1,-0.44 2.15,-0.41s2,0.64 2.15,0.5s-0.07,-0.32 -0.44,-0.6a2.87,2.87 0 0 0 -1.71,-0.58a2.91,2.91 0 0 0 -1.72,0.5c-0.36,0.27 -0.49,0.52 -0.43,0.59z"/>
  <path id="svg_88" fill="#263238" d="m761.24744,127.67055a7.56,7.56 0 0 0 -1.9,-0.39c-0.3,0 -0.58,-0.11 -0.62,-0.31a1.46,1.46 0 0 1 0.22,-0.89l0.94,-2.25a39.1,39.1 0 0 0 2.15,-5.92a39.62,39.62 0 0 0 -2.62,5.73c-0.31,0.79 -0.62,1.55 -0.91,2.27a1.75,1.75 0 0 0 -0.18,1.17a0.75,0.75 0 0 0 0.48,0.46a2.05,2.05 0 0 0 0.51,0.08a7.63,7.63 0 0 0 1.93,0.05z"/>
  <path id="svg_89" fill="#a36957" d="m760.07744,141.54055a21.66,21.66 0 0 0 11.46,-2.75s-2.91,5.77 -11.4,4.76l-0.06,-2.01z"/>
  <path id="svg_90" fill="#263238" d="m769.48744,115.67055c-0.24,0.37 -1.14,0.21 -2.14,0s-1.88,-0.38 -2,-0.81s0.93,-1 2.27,-0.73s2.11,1.22 1.87,1.54z"/>
  <path id="svg_91" fill="#263238" d="m757.81744,113.97055c-0.09,0.43 -1.05,0.59 -2.15,0.64s-2.07,0 -2.2,-0.44s0.8,-1.06 2.13,-1.12s2.31,0.51 2.22,0.92z"/>
  <path id="svg_92" fill="#a36957" d="m761.26744,130.48055a0.58,0.58 0 0 0 -0.65,0.3a0.67,0.67 0 1 0 1.17,0a0.67,0.67 0 0 0 -0.77,-0.33"/>
  <path id="svg_93" fill="#263238" d="m761.53744,130.60055c0,-0.05 -0.19,-0.34 -0.7,-0.23a0.9,0.9 0 0 0 -0.64,0.63a1,1 0 0 0 0.35,1.06a1,1 0 0 0 1.13,0a0.84,0.84 0 0 0 0.36,-0.83c-0.1,-0.53 -0.49,-0.61 -0.51,-0.54s0.14,0.25 0.11,0.56a0.47,0.47 0 0 1 -0.24,0.37a0.51,0.51 0 0 1 -0.51,0a0.53,0.53 0 0 1 -0.18,-0.49a0.49,0.49 0 0 1 0.27,-0.37c0.28,-0.17 0.53,-0.09 0.56,-0.16z"/>
  <path id="svg_94" fill="#263238" d="m776.33744,121.88055c-1,2.34 -3.48,4.15 -3.14,6.68c0.22,1.63 1.27,3.15 1.07,4.79c-0.26,2 -2.39,3.48 -2.7,5.53c-0.37,2.51 2.08,4.46 3.05,6.8c1.43,3.42 -0.39,7.26 -0.44,11a11.74,11.74 0 0 0 10.4,11.42c2.28,0.19 4.85,-0.5 6,-2.46c1,-1.62 0.78,-3.68 1.36,-5.47c0.88,-2.68 3.43,-4.64 4,-7.4c1,-5 -5.1,-9.2 -4.7,-14.32c0.17,-2.19 1.52,-4.09 2.09,-6.21a9.12,9.12 0 0 0 -1.78,-8.09c-1.51,-1.79 -3.69,-3 -5,-4.92c-1.45,-2.21 -1.5,-5 -2,-7.61a19.18,19.18 0 0 0 -30.46,-11.23s-1.45,6.59 5.32,7.7s9.9,-0.17 10.66,2.54a7.16,7.16 0 0 0 2,6.19c2.76,2.98 5.39,2.34 4.27,5.06z"/>
  <path id="svg_95" fill="#455a64" d="m787.08744,167.59055a2.39,2.39 0 0 1 -0.62,-0.06a9.78,9.78 0 0 1 -1.72,-0.47a12.21,12.21 0 0 1 -5.24,-3.87a13.86,13.86 0 0 1 -2.22,-4a15.85,15.85 0 0 1 -0.91,-5.13a21.19,21.19 0 0 1 0.72,-5.71a24.45,24.45 0 0 1 1,-2.89a29.55,29.55 0 0 0 1.09,-2.87a5.34,5.34 0 0 0 0,-2.94a16.3,16.3 0 0 0 -1.13,-2.74a18,18 0 0 1 -1.17,-2.71a5.85,5.85 0 0 1 -0.21,-2.87c0.4,-1.88 1.54,-3.28 2.22,-4.71a8.91,8.91 0 0 0 0.9,-4.26a10.05,10.05 0 0 0 -2.23,-5.9a17.59,17.59 0 0 0 -1.69,-1.65a6.84,6.84 0 0 1 1.85,1.52a10,10 0 0 1 2.44,6a9.24,9.24 0 0 1 -0.88,4.46c-0.69,1.48 -1.8,2.89 -2.14,4.61s0.47,3.53 1.36,5.27a15.58,15.58 0 0 1 1.18,2.83a5.89,5.89 0 0 1 0,3.2a31.35,31.35 0 0 1 -1.15,2.97a23.52,23.52 0 0 0 -1,2.83a20.61,20.61 0 0 0 -0.73,5.57a14.46,14.46 0 0 0 2.94,8.88a12.28,12.28 0 0 0 5,3.91c1.49,0.58 2.35,0.67 2.34,0.73z"/>
  <path id="svg_96" fill="#455a64" d="m786.08744,117.13055a7.07,7.07 0 0 1 -1.49,0.22a15.51,15.51 0 0 1 -4.12,-0.11a7.85,7.85 0 0 1 -5.2,-3.15a17,17 0 0 1 -1.36,-3.36a5.58,5.58 0 0 0 -2.28,-2.81c-2.19,-1.39 -4.76,-1.56 -7,-1.83a12.21,12.21 0 0 1 -5.83,-1.82a5.77,5.77 0 0 1 -2.39,-3.33a3.35,3.35 0 0 1 -0.07,-1.13c0,-0.26 0.06,-0.39 0.08,-0.39a7.08,7.08 0 0 0 0.19,1.47a5.72,5.72 0 0 0 2.4,3.08a12.09,12.09 0 0 0 5.67,1.64c2.24,0.26 4.9,0.39 7.24,1.87a6.08,6.08 0 0 1 2.48,3.07a16.73,16.73 0 0 0 1.29,3.28a7.55,7.55 0 0 0 4.86,3a17.26,17.26 0 0 0 4,0.27a10.11,10.11 0 0 1 1.53,0.03z"/>
  <path id="svg_97" fill="#455a64" d="m783.60744,108.99055a3.33,3.33 0 0 1 -1.17,0.17a7.13,7.13 0 0 1 -5,-2a9.18,9.18 0 0 1 -1.55,-2.07c-0.9,-1.52 -1.77,-3.39 -3.64,-4.17a12,12 0 0 0 -5.6,-0.49a17.18,17.18 0 0 1 -4.78,0a6,6 0 0 1 -3,-1.32a3.32,3.32 0 0 1 -0.58,-0.66q-0.18,-0.26 -0.15,-0.27s0.28,0.32 0.86,0.77a6.3,6.3 0 0 0 2.89,1.12a18.14,18.14 0 0 0 4.68,-0.08a12,12 0 0 1 5.85,0.5a5.75,5.75 0 0 1 2.39,2a25.76,25.76 0 0 1 1.45,2.42a9.52,9.52 0 0 0 1.45,2a7,7 0 0 0 1.71,1.27a7.42,7.42 0 0 0 3,0.83c0.77,-0.01 1.18,-0.07 1.19,-0.02z"/>
  <path id="svg_98" fill="#455a64" d="m790.06744,165.43055c-0.05,0 0.27,-0.66 0.64,-1.9a17.2,17.2 0 0 0 0.66,-5.36a16.32,16.32 0 0 0 -2.13,-7.63c-0.73,-1.31 -1.84,-2.48 -2.75,-3.92a7,7 0 0 1 -1,-2.41a5.39,5.39 0 0 1 0.22,-2.7c0.56,-1.73 1.56,-3.18 1.78,-4.77s-0.54,-3 -1.3,-4.33a21.3,21.3 0 0 1 -1.07,-2a7.32,7.32 0 0 1 -0.57,-2.09a18.12,18.12 0 0 1 0.12,-3.81a10.11,10.11 0 0 0 -0.48,-5.32a4.84,4.84 0 0 0 -1.18,-1.56s0.05,0 0.12,0.06a1.22,1.22 0 0 1 0.32,0.23a3.57,3.57 0 0 1 0.93,1.19a9.88,9.88 0 0 1 0.65,5.43a19.17,19.17 0 0 0 -0.05,3.73a9.6,9.6 0 0 0 1.62,3.88a13.3,13.3 0 0 1 1.09,2.13a5,5 0 0 1 0.3,2.52c-0.24,1.75 -1.27,3.23 -1.79,4.86a5,5 0 0 0 -0.21,2.45a6.66,6.66 0 0 0 0.94,2.23c0.85,1.39 2,2.58 2.73,3.95a16.5,16.5 0 0 1 2.08,7.87a16.18,16.18 0 0 1 -0.84,5.43a10.43,10.43 0 0 1 -0.58,1.38a1.84,1.84 0 0 1 -0.25,0.46z"/>
  <path id="svg_99" fill="#263238" d="m749.33744,351.76055s-6.74,-63.84 -7.13,-87.43s10.61,-46.87 10.61,-46.87l43.08,-1.79s8.52,23.93 8.67,34c0.3,19.54 -5.19,38.83 -4.56,54.33l1.44,47.8"/>
  <path id="svg_100" fill="#fafafa" d="m802.89744,273.27055a6.88,6.88 0 0 1 -0.71,0.54l-0.39,0.27l-0.42,0.41a6.92,6.92 0 0 0 -1,1.07c-1.39,1.7 -2.4,4.75 -3.37,8.54a28.7,28.7 0 0 1 -2.18,6.08a10.64,10.64 0 0 1 -1,1.51c-0.18,0.24 -0.35,0.5 -0.56,0.73l-0.66,0.66a10.71,10.71 0 0 1 -3.24,2.08c-2.41,1.06 -5.14,1.56 -7.62,2.81a12,12 0 0 0 -5.53,6.3c-1.22,2.71 -2,5.55 -3,8.21s-2.35,5.2 -4.5,6.82a12.36,12.36 0 0 1 -7,2.21c-2.32,0.14 -4.47,0.07 -6.4,0.36a10.11,10.11 0 0 0 -4.82,1.82a6.76,6.76 0 0 0 -2.24,3.16a4.8,4.8 0 0 0 -0.17,2.45c0.12,0.56 0.27,0.83 0.24,0.84a2.52,2.52 0 0 1 -0.34,-0.82a4.59,4.59 0 0 1 0.08,-2.53a6.8,6.8 0 0 1 2.25,-3.33a10.25,10.25 0 0 1 5,-2c2,-0.32 4.13,-0.28 6.42,-0.43a12,12 0 0 0 6.79,-2.16a14.52,14.52 0 0 0 4.31,-6.62c1,-2.63 1.73,-5.48 3,-8.24a12.5,12.5 0 0 1 5.78,-6.55c2.58,-1.28 5.31,-1.77 7.66,-2.79a10.49,10.49 0 0 0 3.12,-2l0.63,-0.63c0.2,-0.22 0.37,-0.47 0.55,-0.7a9.65,9.65 0 0 0 0.93,-1.45a28.68,28.68 0 0 0 2.21,-6c1,-3.78 2.09,-6.87 3.56,-8.58a6.51,6.51 0 0 1 1,-1.06c0.16,-0.14 0.3,-0.28 0.44,-0.39l0.41,-0.26a6.93,6.93 0 0 1 0.77,-0.33z"/>
  <path id="svg_101" fill="#fafafa" d="m803.15744,243.73055a4.67,4.67 0 0 1 0.06,0.85a10.48,10.48 0 0 1 -0.3,2.45a15.75,15.75 0 0 1 -4.87,7.52a28.93,28.93 0 0 1 -5,3.69c-1.93,1.14 -4.06,2.23 -6.25,3.47a32.29,32.29 0 0 0 -6.38,4.49a24.64,24.64 0 0 0 -4.84,6.79a62.1,62.1 0 0 1 -4.19,7.39a17.66,17.66 0 0 1 -2.74,3a16.54,16.54 0 0 1 -3.31,2.19a39.9,39.9 0 0 1 -6.69,2.57c-2.14,0.66 -4.14,1.25 -5.88,2a22.51,22.51 0 0 0 -4.48,2.4a13.87,13.87 0 0 0 -2.81,2.59a12.85,12.85 0 0 0 -1.69,2.8a5.28,5.28 0 0 1 0.28,-0.81a10,10 0 0 1 1.25,-2.12a13.47,13.47 0 0 1 2.8,-2.7a22.83,22.83 0 0 1 4.51,-2.5a60,60 0 0 1 5.89,-2.05a41.38,41.38 0 0 0 6.6,-2.58a17.05,17.05 0 0 0 3.15,-2.12a17.74,17.74 0 0 0 2.64,-2.94a64.33,64.33 0 0 0 4.15,-7.34a24.83,24.83 0 0 1 5,-6.92a32.23,32.23 0 0 1 6.5,-4.54c2.2,-1.23 4.33,-2.3 6.26,-3.43a28.87,28.87 0 0 0 5,-3.58a15.86,15.86 0 0 0 4.92,-7.31a15.29,15.29 0 0 0 0.42,-3.26z"/>
  <path id="svg_102" fill="#fafafa" d="m742.42744,267.67055a0.75,0.75 0 0 1 -0.09,-0.2a5.22,5.22 0 0 1 -0.19,-0.59a4.78,4.78 0 0 1 0.1,-2.4c0.56,-2 2.77,-4.57 6.33,-5.84c1.78,-0.61 3.79,-1 5.89,-1.52a11.09,11.09 0 0 0 8.15,-6.07a32.14,32.14 0 0 0 1.49,-3.59a39.13,39.13 0 0 1 3.17,-7.67a12.22,12.22 0 0 1 6.52,-5.07a59.22,59.22 0 0 1 7.49,-1.9a24.83,24.83 0 0 0 6.51,-2.22a13.7,13.7 0 0 0 4.4,-4a14.88,14.88 0 0 0 2.8,-8.1a23,23 0 0 0 -0.21,-3.2a10.41,10.41 0 0 1 0.41,3.2a14.73,14.73 0 0 1 -2.7,8.31a13.84,13.84 0 0 1 -4.49,4.13a24.93,24.93 0 0 1 -6.61,2.31a59.58,59.58 0 0 0 -7.42,1.91a11.74,11.74 0 0 0 -6.26,4.87a39.19,39.19 0 0 0 -3.13,7.56a31.15,31.15 0 0 1 -1.53,3.65a13.21,13.21 0 0 1 -2.24,3.1a13,13 0 0 1 -6.25,3.15c-2.12,0.54 -4.12,0.88 -5.87,1.46c-3.47,1.18 -5.67,3.61 -6.26,5.55a5.07,5.07 0 0 0 -0.19,2.32a5,5 0 0 1 0.18,0.85z"/>
  <path id="svg_103" fill="#fafafa" d="m799.45744,321.67055a3.82,3.82 0 0 1 0.07,0.63a6.64,6.64 0 0 1 -0.19,1.8a10.21,10.21 0 0 1 -3.78,5.4a16.67,16.67 0 0 1 -4,2.36c-1.53,0.65 -3.22,1.17 -5,1.72a41.32,41.32 0 0 0 -5.41,2a15.45,15.45 0 0 0 -4.81,3.59c-1.46,1.52 -2.72,3.19 -4.12,4.67a18.77,18.77 0 0 1 -4.61,3.6a20.31,20.31 0 0 1 -9.51,2.48a18.94,18.94 0 0 1 -6.54,-1.09a12.48,12.48 0 0 1 -1.66,-0.71a2.63,2.63 0 0 1 -0.55,-0.31a4.25,4.25 0 0 1 0.59,0.21a17.72,17.72 0 0 0 1.68,0.62a20,20 0 0 0 6.48,0.91a20.21,20.21 0 0 0 9.28,-2.53a18.68,18.68 0 0 0 4.47,-3.53c1.37,-1.46 2.62,-3.12 4.11,-4.68a16.06,16.06 0 0 1 5.08,-3.7a41.39,41.39 0 0 1 5.49,-2c1.76,-0.54 3.44,-1 5,-1.66a16.77,16.77 0 0 0 3.9,-2.25a10.2,10.2 0 0 0 3.81,-5.16a12.69,12.69 0 0 0 0.22,-2.37z"/>
  <path id="svg_104" fill="#b78876" d="m794.54744,189.13055l-8.34,0.2a13.49,13.49 0 0 1 -1.88,4.73c-7,-12.1 -12.37,-28.3 -13.71,-34.81c0.2,-0.65 0.43,-1.37 0.72,-2.17a9.24,9.24 0 0 0 -0.11,-3.66c-0.24,-1.45 -0.64,-3.4 -0.76,-4.3c-0.37,-2.76 -0.82,-3.19 -1.78,-2.88c-1.3,0.43 0.54,7.73 -0.53,7.89c-0.58,0.08 -1.28,-2.42 -1.48,-4.47s-1.14,-8.37 -1.81,-8.79c-1,-0.62 -1.87,0.36 -1.61,2.4s0.57,8.24 -0.51,8.33s-2,-10.39 -2,-10.39s0.17,-2.28 -1.09,-2.23c-2.26,0.1 -0.49,11.14 -0.3,12.19c0.14,0.72 -1,0.86 -1.14,0.07s-0.66,-10.47 -3,-10.39c-1.78,0 1.37,9.09 0.37,11.19s-1.68,-7.12 -3.37,-7c-0.63,0.05 -1.1,0.17 0.06,5.38a118.2,118.2 0 0 0 4,12.21c2.68,14.45 14.44,60.68 32.87,52.22c10.32,-4.74 14.5,-25.72 14.5,-25.72l-9.1,0z"/>
  <path id="svg_105" fill="#a36957" d="m758.99744,151.87055a0.49,0.49 0 0 0 0.24,0a0.53,0.53 0 0 0 0.37,-0.58c0,-0.62 -0.12,-1.52 -0.26,-2.69a37.55,37.55 0 0 1 -0.46,-4.26c0,-0.84 0,-1.74 0.05,-2.69a9.9,9.9 0 0 1 0.15,-1.44c0.08,-0.45 0.38,-1 0.73,-0.91l0.06,0c0.35,0 0.63,0.26 0.74,0.68a3.92,3.92 0 0 1 0.14,1.34l0,0l0,0a78,78 0 0 0 1.07,8.35c0.08,0.37 0.16,0.75 0.28,1.13a4.3,4.3 0 0 0 0.2,0.57a3.18,3.18 0 0 0 0.17,0.3a0.55,0.55 0 0 0 0.42,0.26a0.74,0.74 0 0 0 0.63,-0.53a2.86,2.86 0 0 0 0.19,-0.61a10.19,10.19 0 0 0 0.16,-1.22a36.44,36.44 0 0 0 -0.07,-5a11.3,11.3 0 0 1 -0.1,-2.51a1.4,1.4 0 0 1 0.49,-0.93a0.53,0.53 0 0 1 0.43,-0.05a0.82,0.82 0 0 1 0.24,0.1a0.32,0.32 0 0 1 0.11,0.15a12.75,12.75 0 0 1 0.69,2.51c0.18,0.88 0.33,1.79 0.47,2.7s0.27,1.83 0.38,2.76a20.36,20.36 0 0 0 0.46,2.85a11,11 0 0 0 0.45,1.41a2.65,2.65 0 0 0 0.42,0.71a0.59,0.59 0 0 0 0.59,0.22a0.62,0.62 0 0 0 0.41,-0.45a5,5 0 0 0 0.11,-1.56c0,-0.5 -0.06,-1 -0.11,-1.48c-0.07,-0.84 -0.15,-1.67 -0.18,-2.49a9.68,9.68 0 0 1 0,-1.21a2,2 0 0 1 0.13,-0.52a0.49,0.49 0 0 1 0.09,-0.15l0,0l0.13,0c0.66,-0.27 0.88,0.65 1.06,1.39s0.25,1.58 0.41,2.37c0.26,1.57 0.6,3.14 0.77,4.64a5.53,5.53 0 0 1 -0.08,2.16c-0.24,0.72 -0.48,1.43 -0.71,2.14l0,0.07l0,0.06a115.17,115.17 0 0 0 4.47,14.46c1.58,4.27 3.17,8 4.56,11s2.65,5.35 3.51,6.93l1,1.79a3.36,3.36 0 0 0 0.39,0.6a4,4 0 0 0 -0.31,-0.64l-1,-1.83c-0.82,-1.61 -2,-4 -3.36,-7s-2.9,-6.73 -4.44,-11a119.4,119.4 0 0 1 -4.38,-14.42l0,0.14c0.23,-0.7 0.46,-1.41 0.7,-2.12a5.72,5.72 0 0 0 0.12,-2.39c-0.18,-1.57 -0.51,-3.09 -0.77,-4.67c-0.15,-0.78 -0.25,-1.58 -0.41,-2.4a4.4,4.4 0 0 0 -0.21,-1.24a1.18,1.18 0 0 0 -0.55,-0.56a1.27,1.27 0 0 0 -0.79,0l-0.16,0a0.65,0.65 0 0 0 -0.23,0.13a0.88,0.88 0 0 0 -0.25,0.35a2.26,2.26 0 0 0 -0.17,0.68a9.46,9.46 0 0 0 0,1.3c0,0.84 0.12,1.68 0.19,2.52c0,0.49 0.08,1 0.1,1.45a4.86,4.86 0 0 1 -0.07,1.35c0,0.1 -0.08,0.08 0,0.13l0,0s0,0 0,0l0,0s0,0 0,0s0,0 0,0l-0.06,-0.06a2,2 0 0 1 -0.3,-0.54a9.83,9.83 0 0 1 -0.43,-1.33a18.59,18.59 0 0 1 -0.45,-2.77q-0.16,-1.41 -0.39,-2.79c-0.14,-0.92 -0.3,-1.82 -0.48,-2.72a12.18,12.18 0 0 0 -0.76,-2.67a0.85,0.85 0 0 0 -0.31,-0.35a1.73,1.73 0 0 0 -0.37,-0.16a1.11,1.11 0 0 0 -0.85,0.12a1.87,1.87 0 0 0 -0.74,1.3a4.85,4.85 0 0 0 0,1.37c0,0.43 0.1,0.85 0.13,1.27a37,37 0 0 1 0.09,4.92a8.54,8.54 0 0 1 -0.15,1.16a2.23,2.23 0 0 1 -0.15,0.52a0.61,0.61 0 0 1 -0.11,0.18c0,0.09 -0.07,0 -0.06,0.12c0,-0.1 0,0 0,-0.13a2,2 0 0 1 -0.12,-0.21c-0.07,-0.16 -0.13,-0.34 -0.19,-0.51c-0.11,-0.36 -0.19,-0.73 -0.27,-1.09a79.46,79.46 0 0 1 -1.13,-8.28l0,0a4.35,4.35 0 0 0 -0.17,-1.49a1.4,1.4 0 0 0 -0.39,-0.66a1,1 0 0 0 -0.74,-0.28l0.06,0a0.87,0.87 0 0 0 -0.87,0.41a2.21,2.21 0 0 0 -0.3,0.78a10.09,10.09 0 0 0 -0.14,1.5c0,1 0,1.87 0,2.72a34.89,34.89 0 0 0 0.55,4.28c0.17,1.16 0.3,2.06 0.36,2.67a0.47,0.47 0 0 1 -0.29,0.52c-0.3,0.03 -0.39,0.04 -0.38,0.05z"/>
  <path id="svg_106" fill="#b78876" d="m693.86744,202.90055a21.41,21.41 0 0 0 -5.79,0.67c-5.17,1.36 -14.08,6.76 -14.45,13.43l6.48,0s-3.63,7.72 -2.57,7c2.77,-1.86 8.27,-7.45 8.27,-7.45l8.06,-13.65z"/>
  <path id="svg_107" fill="#263238" d="m782.19744,86.67055c-0.15,0 -0.73,-5.34 -1.31,-12s-0.94,-12 -0.8,-12s0.73,5.34 1.31,12s0.94,12 0.8,12z"/>
  <path id="svg_108" fill="#263238" d="m810.60744,63.08055c0.11,0.08 -4.26,6.43 -9.77,14.18s-10.08,14 -10.2,13.88s4.26,-6.43 9.77,-14.18s10.08,-13.96 10.2,-13.88z"/>
  <path id="svg_109" fill="#263238" d="m822.40744,91.86055c0,0.14 -5.08,1.31 -11.4,2.61s-11.48,2.24 -11.51,2.1s5.07,-1.31 11.4,-2.61s11.44,-2.24 11.51,-2.1z"/>
  <g stroke="null" id="freepik--Folder--inject-2">
   <path stroke="null" id="svg_110" fill="#FF725E" d="m416.40136,229.79147l-44.33523,181.8l-5.76107,23.8l295.56818,-1.14c13.27552,-0.05 25.04815,-9.46 29.29381,-23.44l52.42578,-171.63c3.24374,-10.61 -3.86994,-21.65 -13.9393,-21.64l-299.22521,0.25c-6.51252,-0.01 -12.34874,4.91 -14.02696,12z"/>
   <g stroke="null" id="svg_111" opacity="0.5">
    <path stroke="null" id="svg_112" d="m416.40136,229.79147l-44.33523,181.8l-5.76107,23.8l295.56818,-1.14c13.27552,-0.05 25.04815,-9.46 29.29381,-23.44l52.42578,-171.63c3.24374,-10.61 -3.86994,-21.65 -13.9393,-21.64l-299.22521,0.25c-6.51252,-0.01 -12.34874,4.91 -14.02696,12z"/>
   </g>
   <path stroke="null" id="svg_113" fill="#FF725E" d="m633.55631,399.25147l-31.31019,-201.41c-1.25241,-8.25 -9.50577,-14.41 -19.23698,-14.38l-68.63193,0.17a18.78611,15 0 0 0 -13.56357,4.8l-32.5626,27.67l-190.86691,0.82c-11.65991,0.05 -20.62715,8.87 -19.08669,18.77l29.06838,186.15c1.25241,8.24 9.50577,14.39 19.21193,14.38l332.70207,-0.53c37.04622,0.61 40.59053,-8.12 40.59053,-8.12c-42.53176,7.51 -46.31403,-28.27 -46.31403,-28.32z"/>
   <g stroke="null" id="svg_114" opacity="0.5">
    <polygon stroke="null" id="svg_115" fill="#fff" points="490.0929992198944,358.9714660644531 478.8714416027069,368.5914611816406 392.45533442497253,306.5114440917969 403.67689204216003,296.8914489746094 490.0929992198944,358.9714660644531 "/>
    <polygon stroke="null" id="svg_116" fill="#fff" points="474.1749083995819,294.7614440917969 486.57374262809753,303.6714782714844 408.3859374523163,370.721435546875 395.9745910167694,361.8114318847656 474.1749083995819,294.7614440917969 "/>
   </g>
  </g>
  <g id="freepik--speech-bubble--inject-2">
   <path id="svg_117" fill="#FF725E" d="m697.32359,86.77957a1.85,1.85 0 0 1 -1.13,-1.63l-0.4,-9.28a1.86,1.86 0 0 1 2.29,-1.9a5.82,5.82 0 0 0 4.52,-0.89a5.21,5.21 0 0 0 2.33,-3.42a5.33,5.33 0 0 0 -1.12,-4a6,6 0 0 0 -3.94,-2.37a7,7 0 0 0 -7.1,5a1.87,1.87 0 0 1 -3.6,-1a10.76,10.76 0 0 1 11.13,-7.77a9.66,9.66 0 0 1 6.49,3.83a9.13,9.13 0 0 1 1.83,6.87a9,9 0 0 1 -4,5.92a9.72,9.72 0 0 1 -5.06,1.65l0.31,7.16a1.87,1.87 0 0 1 -2.6,1.79l0.05,0.04z"/>
   <path id="svg_118" fill="#FF725E" d="m700.06359,90.57957a1.53,1.53 0 1 1 -1.63,-1.42a1.52,1.52 0 0 1 1.63,1.42z"/>
   <path id="svg_119" fill="#263238" d="m665.19359,73.68957a4.68,4.68 0 0 0 0.09,-0.6c0,-0.44 0.11,-1 0.19,-1.79a21.67,21.67 0 0 1 0.49,-2.88c0.13,-0.56 0.2,-1.18 0.4,-1.81s0.4,-1.31 0.62,-2a34.49,34.49 0 0 1 5,-9.53a33.5,33.5 0 0 1 10.51,-9.14a33,33 0 0 1 7.41,-3.06a33.55,33.55 0 0 1 8.55,-1.12a33.16,33.16 0 0 1 4.55,0.24c0.77,0.08 1.53,0.28 2.3,0.41a17.12,17.12 0 0 1 2.3,0.56a32,32 0 0 1 8.89,4.03a33.44,33.44 0 0 1 13.22,16.6a32.74,32.74 0 0 1 2,11.41a32.16,32.16 0 0 1 -2.09,11.74l-0.45,1.14l-0.06,0.15l0.06,0.15c2.51,5.77 5,11.44 7.35,16.93l0.42,-0.48l-15,-5.75l-0.18,-0.07l-0.15,0.14a33.49,33.49 0 0 1 -14.14,8.16a33.31,33.31 0 0 1 -27,-4.19a34.17,34.17 0 0 1 -8.43,-7.85a33.21,33.21 0 0 1 -6.4,-15.34c-0.12,-1 -0.22,-1.84 -0.31,-2.6s0,-1.38 -0.05,-1.91s0,-0.88 0,-1.17a0.2,0.2 0 1 0 -0.06,0c0,0.29 0,0.68 0,1.17s0,1.17 0,1.93s0.17,1.63 0.27,2.62a35.77,35.77 0 0 0 1.71,7.06a36.61,36.61 0 0 0 4.58,8.5a34.47,34.47 0 0 0 8.49,8a33.75,33.75 0 0 0 27.41,4.38a34,34 0 0 0 14.32,-8.24l-0.33,0.07l15,5.78l0.75,0.29l-0.33,-0.77c-2.38,-5.49 -4.84,-11.15 -7.34,-16.93l0,0.29l0.46,-1.17a32.7,32.7 0 0 0 2.14,-12a33.45,33.45 0 0 0 -2,-11.66a34,34 0 0 0 -13.51,-16.91a32.3,32.3 0 0 0 -9.12,-4.1a15.89,15.89 0 0 0 -2.34,-0.55c-0.78,-0.14 -1.55,-0.34 -2.33,-0.41a34.39,34.39 0 0 0 -4.61,-0.26a33.56,33.56 0 0 0 -8.68,1.18a34.19,34.19 0 0 0 -7.51,3.14a33.57,33.57 0 0 0 -10.57,9.35a34.2,34.2 0 0 0 -4.93,9.68c-0.21,0.72 -0.41,1.41 -0.59,2a17.6,17.6 0 0 0 -0.38,1.83a19,19 0 0 0 -0.42,2.9c-0.06,0.77 -0.1,1.36 -0.13,1.8a2.54,2.54 0 0 0 -0.04,0.66z"/>
  </g>
  <text opacity="0.88" filter="url(#svg_120_blur)" transform="matrix(1.63461 0 0 1.72763 -53.2142 -16.2901)" font-style="normal" font-weight="normal" xml:space="preserve" text-anchor="start" font-family="'Playball'" font-size="24" stroke-width="0" id="svg_120" y="98.03001" x="184.89441" fill="#FF725E">no messages to show</text>
  <text opacity="0.88" transform="matrix(1.4503 0 0 1.44622 -94.0028 -79.7679)" stroke="null" xml:space="preserve" text-anchor="start" font-family="'Playball'" font-size="25" id="svg_124" y="192.81699" x="216.7278" stroke-width="0" fill="#FF725E">Keep Sharing</text>
  <text opacity="0.78" transform="matrix(2.93887 0 0 4.45145 45.7204 -349.701)" stroke="null" xml:space="preserve" text-anchor="start" font-family="'Playball'" font-size="24" id="svg_126" y="112.57393" x="12.66185" stroke-width="0" fill="#FF725E">Oop's</text>
  <path stroke="null" id="svg_129" d="m428.02003,187.3915c4.74477,0 9.2059,1.89886 12.55714,5.34359c3.35895,3.44631 5.20568,8.03823 5.20568,12.92483l7.31447,0c0,-14.19494 -11.25148,-25.74093 -25.07883,-25.74093l0,7.47251l0.00154,0zm0.00925,-13.24945c16.91499,0 30.67297,14.14294 30.67297,31.52575l7.31138,0c0,-21.50357 -17.03985,-38.99984 -37.98589,-38.99984l0,7.47409l0.00154,0zm10.11231,26.30192c0,2.8601 -2.26756,5.1797 -5.06386,5.1797s-5.06386,-2.3196 -5.06386,-5.1797c0,-2.85695 2.26756,-5.17655 5.06386,-5.17655s5.06386,2.31802 5.06386,5.17655z" fill="#FF725E"/>
  <path id="svg_130" d="m563.73463,291.64225c0.01539,0 0.02986,0.00603 0.04073,0.01696c0.0109,0.01094 0.01689,0.02551 0.01689,0.04101l0.02373,0c0,-0.04504 -0.0365,-0.08168 -0.08135,-0.08168l0,0.02371l0.00001,0zm0.00003,-0.04204c0.05487,0 0.09949,0.04488 0.09949,0.10003l0.02372,0c0,-0.06823 -0.05527,-0.12375 -0.12321,-0.12375l0,0.02372l0.00001,0zm0.0328,0.08346c0,0.00908 -0.00736,0.01644 -0.01643,0.01644s-0.01643,-0.00736 -0.01643,-0.01644c0,-0.00907 0.00736,-0.01643 0.01643,-0.01643s0.01643,0.00736 0.01643,0.01643z" stroke="null" fill="#FF725E"/>
  <path transform="rotate(9.35744 432.451 199.099)" id="svg_131" d="m432.38902,199.10329c0.01539,0 0.02986,0.00603 0.04073,0.01696c0.0109,0.01094 0.01689,0.02551 0.01689,0.04101l0.02373,0c0,-0.04504 -0.0365,-0.08168 -0.08135,-0.08168l0,0.02371l0.00001,0zm0.00003,-0.04204c0.05487,0 0.09949,0.04488 0.09949,0.10003l0.02372,0c0,-0.06823 -0.05527,-0.12375 -0.12321,-0.12375l0,0.02372l0.00001,0zm0.0328,0.08346c0,0.00908 -0.00736,0.01644 -0.01643,0.01644s-0.01643,-0.00736 -0.01643,-0.01644c0,-0.00907 0.00736,-0.01643 0.01643,-0.01643s0.01643,0.00736 0.01643,0.01643z" stroke="null" fill="#FF725E"/>
 </g>
</svg>