<svg width="921" height="463" xmlns="http://www.w3.org/2000/svg">
 <g>
  <title>Layer 1</title>
  <g stroke="null" id="freepik--background-complete--inject-31">
   <rect stroke="null" x="15" y="425.17368" width="898.00007" height="0.31855" fill="#ebebeb" id="svg_1"/>
   <path stroke="null" d="m440.65203,368.34428l-346.78967,0a10.25516,7.27569 0 0 1 -10.2372,-7.27569l0,-345.85659a10.25516,7.27569 0 0 1 10.2372,-7.21198l346.78967,0a10.25516,7.27569 0 0 1 10.25516,7.27569l0,345.79288a10.25516,7.27569 0 0 1 -10.25516,7.27569zm-346.78967,-360.08943a9.80616,6.95714 0 0 0 -9.7882,6.95714l0,345.85659a9.80616,6.95714 0 0 0 9.7882,6.95714l346.78967,0a9.82412,6.96988 0 0 0 9.80616,-6.95714l0,-345.85659a9.82412,6.96988 0 0 0 -9.80616,-6.95714l-346.78967,0z" fill="#ebebeb" id="svg_2"/>
   <path stroke="null" d="m829.14482,368.34428l-346.80763,0a10.27312,7.28843 0 0 1 -10.25516,-7.27569l0,-345.85659a10.27312,7.28843 0 0 1 10.25516,-7.21198l346.80763,0a10.25516,7.27569 0 0 1 10.21924,7.21198l0,345.85659a10.25516,7.27569 0 0 1 -10.21924,7.27569zm-346.80763,-360.08943a9.82412,6.96988 0 0 0 -9.80616,6.95714l0,345.85659a9.82412,6.96988 0 0 0 9.80616,6.95714l346.80763,0a9.82412,6.96988 0 0 0 9.80616,-6.95714l0,-345.85659a9.82412,6.96988 0 0 0 -9.80616,-6.95714l-346.80763,0z" fill="#ebebeb" id="svg_3"/>
   <rect stroke="null" x="107.09889" y="437.30408" width="46.696" height="0.31855" fill="#ebebeb" id="svg_4"/>
   <rect stroke="null" x="275.68942" y="433.851" width="80.87389" height="0.31855" fill="#ebebeb" id="svg_5"/>
   <rect stroke="null" x="155.59089" y="449.14142" width="109.17885" height="0.31855" fill="#ebebeb" id="svg_6"/>
   <rect stroke="null" x="786.3641" y="447.00076" width="34.53708" height="0.31855" fill="#ebebeb" id="svg_7"/>
   <rect stroke="null" x="671.06089" y="447.00076" width="99.30085" height="0.31855" fill="#ebebeb" id="svg_8"/>
   <rect stroke="null" x="476.66184" y="441.62363" width="133.74813" height="0.31855" fill="#ebebeb" id="svg_9"/>
   <rect stroke="null" x="737.47698" y="260.04987" width="64.09925" height="165.12381" fill="#e6e6e6" id="svg_10"/>
   <rect stroke="null" x="500.58456" y="260.04987" width="236.89242" height="165.12381" fill="#f5f5f5" id="svg_11"/>
   <rect stroke="null" x="930.79039" y="239.16658" width="122.68" height="118.08" fill="#e6e6e6" transform="matrix(0 1.2742 -1.796 0 1154.63 -917.16)" id="svg_12"/>
   <rect stroke="null" x="600.94505" y="268.84187" width="124.12157" height="156.31908" fill="#e0e0e0" id="svg_13"/>
   <rect stroke="null" x="927.2104" y="151.70658" width="41.77" height="124.12" fill="#f5f5f5" transform="matrix(0 1.2742 -1.796 0 1001.66 -915.313)" id="svg_14"/>
   <path stroke="null" d="m712.3689,313.69377l-189.28045,0l0,-41.93398l189.28045,0l0,41.93398zm-185.50885,-2.65034l181.79113,0l0,-36.59508l-181.79113,0l0,36.59508z" fill="#fff" id="svg_15"/>
   <rect stroke="null" x="627.11277" y="217.5425" width="58.42388" height="42.40544" fill="#e6e6e6" id="svg_16"/>
   <rect stroke="null" x="929.37659" y="693.1996" width="42.75" height="33.28" fill="#f0f0f0" transform="matrix(-1.796 0 0 -1.2742 2296.27 1143.22)" id="svg_17"/>
   <rect stroke="null" x="550.33376" y="212.31827" width="135.20289" height="6.35827" opacity="0.7" fill="#e6e6e6" id="svg_18"/>
   <rect stroke="null" x="627.11277" y="211.66843" width="61.36932" height="5.88681" fill="#e6e6e6" id="svg_19"/>
   <rect stroke="null" x="926.08657" y="650.69962" width="44.39" height="4.62" fill="#f0f0f0" transform="matrix(-1.796 0 0 -1.2742 2290.35 1046.67)" id="svg_20"/>
   <rect stroke="null" x="707.80705" y="241.06427" width="47.79156" height="18.88367" fill="#ebebeb" id="svg_21"/>
   <rect stroke="null" x="1079.7066" y="730.10961" width="34.97" height="14.82" fill="#f5f5f5" transform="matrix(-1.796 0 0 -1.2742 2646.96 1190.24)" id="svg_22"/>
   <rect stroke="null" x="644.98297" y="236.78295" width="110.59769" height="5.21149" opacity="0.7" fill="#e6e6e6" id="svg_23"/>
   <rect stroke="null" x="707.80705" y="236.24778" width="50.1982" height="4.81648" fill="#ebebeb" id="svg_24"/>
   <rect stroke="null" x="1077.02657" y="707.72961" width="36.32" height="3.78" fill="#f5f5f5" transform="matrix(-1.796 0 0 -1.2742 2642.15 1142.84)" id="svg_25"/>
   <rect stroke="null" x="1015.18658" y="362.30961" width="102.81" height="136.42" fill="#e6e6e6" transform="matrix(-1.796 0 0 -1.2742 2573.68 668.686)" id="svg_26"/>
   <rect stroke="null" x="996.18655" y="362.30961" width="107.2" height="136.42" fill="#f5f5f5" transform="matrix(-1.796 0 0 -1.2742 2533.42 668.686)" id="svg_27"/>
   <path stroke="null" d="m722.80366,196.86221l-149.57089,0a7.184,5.09681 0 0 1 -7.184,-5.09681l0,-143.32222a7.184,5.09681 0 0 1 7.184,-5.09681l149.57089,0a7.184,5.09681 0 0 1 7.184,5.09681l0,143.33496a7.184,5.09681 0 0 1 -7.184,5.08407zm-149.57089,-150.94194a3.592,2.5484 0 0 0 -3.592,2.5484l0,143.30948a3.592,2.5484 0 0 0 3.592,2.5484l149.57089,0a3.592,2.5484 0 0 0 3.592,-2.5484l0,-143.33496a3.592,2.5484 0 0 0 -3.592,-2.5484l-149.57089,0.02548z" fill="#fff" id="svg_28"/>
   <rect stroke="null" x="333.85659" y="522.61962" width="145.15" height="286.46" fill="#e6e6e6" transform="matrix(-1.796 0 0 -1.2742 992.808 1068.48)" id="svg_29"/>
   <rect stroke="null" x="325.91659" y="522.61962" width="146.86" height="286.46" fill="#f5f5f5" transform="matrix(-1.796 0 0 -1.2742 975.854 1068.48)" id="svg_30"/>
   <path stroke="null" d="m413.31691,34.41422l-300.91982,0a2.28092,1.61824 0 0 1 -2.20908,-1.61824l0,0a2.28092,1.61824 0 0 1 2.28092,-1.61824l300.84798,0a2.28092,1.61824 0 0 1 2.28092,1.61824l0,0a2.28092,1.61824 0 0 1 -2.28092,1.61824z" fill="#e6e6e6" id="svg_31"/>
   <rect stroke="null" x="333.85659" y="1100.35962" width="145.15" height="4.84" fill="#e6e6e6" transform="matrix(-1.796 0 0 -1.2742 992.808 1810.8)" id="svg_32"/>
   <rect stroke="null" x="301.07658" y="1100.35962" width="139.82" height="4.84" fill="#f5f5f5" transform="matrix(-1.796 0 0 -1.2742 907.929 1810.8)" id="svg_33"/>
   <rect stroke="null" x="353.7704" y="230.69658" width="274.76" height="137.85" fill="#fafafa" transform="matrix(0 1.2742 -1.796 0 796.739 -405.759)" id="svg_34"/>
   <polygon stroke="null" points="296.4152579038109,395.1025085449219 277.32379274834784,45.01558303833008 242.98426590028612,45.01558303833008 262.07575876534065,395.1025085449219 296.4152579038109,395.1025085449219 " fill="#fff" id="svg_35"/>
   <polygon stroke="null" points="252.35936281386967,395.1025085449219 233.26789765840658,45.01558303833008 217.31942062273083,45.01558303833008 236.41091348778536,395.1025085449219 252.35936281386967,395.1025085449219 " fill="#fff" id="svg_36"/>
   <rect stroke="null" x="215.70039" y="205.45658" width="113.82" height="0.57" fill="#e6e6e6" transform="matrix(0 1.2742 -1.796 0 504.853 -230.837)" id="svg_37"/>
   <rect stroke="null" x="115.37845" y="26.24659" width="37.4466" height="355.6552" opacity="0.4" fill="#e0e0e0" id="svg_38"/>
   <rect stroke="null" x="157.11749" y="26.24659" width="37.4466" height="355.6552" opacity="0.4" fill="#e0e0e0" id="svg_39"/>
   <rect stroke="null" x="132.44045" y="29.43209" width="37.4466" height="355.6552" opacity="0.4" fill="#e0e0e0" id="svg_40"/>
   <rect stroke="null" x="325.43862" y="26.24659" width="37.4466" height="355.6552" opacity="0.4" fill="#e0e0e0" id="svg_41"/>
   <rect stroke="null" x="367.19563" y="26.24659" width="37.4466" height="355.6552" opacity="0.4" fill="#e0e0e0" id="svg_42"/>
   <rect stroke="null" x="342.50063" y="29.43209" width="37.4466" height="355.6552" opacity="0.4" fill="#e0e0e0" id="svg_43"/>
  </g>
  <g id="freepik--Shadow--inject-31">
   <ellipse id="freepik--path--inject-31" cx="250" cy="416.24" rx="193.89" ry="11.32" fill="#f5f5f5"/>
  </g>
  <g stroke="null" id="freepik--character-2--inject-31">
   <path stroke="null" d="m677.64648,128.05968c-10.00611,-3.62714 -21.58691,-5.67505 -27.38971,2.11923c-3.80654,5.0943 -5.70361,15.50706 -12.39914,21.11079a5.48042,4.50336 0 0 0 -1.83507,3.28073a2.00866,1.65055 0 0 0 0,0.23434c0.11159,3.13809 3.17418,7.3358 11.04764,8.88447a13.49027,11.08521 0 0 1 -3.94293,-3.2196a26.29858,21.61004 0 0 0 10.26649,1.77282c9.27456,-0.08151 16.40407,0.49924 20.65697,2.31281s11.98997,-6.11316 11.6428,-9.71993c1.67388,2.03772 3.71974,0 4.3769,-5.01279c1.79788,-12.88859 -3.29817,-23.45417 -12.42394,-21.76287z" fill="#263238" id="svg_44"/>
   <path stroke="null" d="m654.86925,168.34543a8.10904,6.66335 0 1 1 8.12144,-6.66335a8.12144,6.67354 0 0 1 -8.12144,6.66335zm0,-12.83765a7.51388,6.1743 0 1 0 7.51388,6.1743a7.51388,6.1743 0 0 0 -7.51388,-6.1743z" fill="#407BFF" id="svg_45"/>
   <path stroke="null" d="m646.48743,191.51433a167.58682,137.70922 0 0 1 -10.34089,14.45763a99.40393,81.68207 0 0 1 -6.19957,6.8875a45.18248,37.12729 0 0 1 -8.03464,6.52071a11.48161,9.43465 0 0 1 -1.82267,0.92716a10.01851,8.23239 0 0 1 -2.47983,0.70301a9.91931,8.15089 0 0 1 -5.05885,-0.30566a15.44933,12.69501 0 0 1 -5.97639,-3.35205a31.56822,25.9402 0 0 1 -3.55855,-3.73922c-1.00433,-1.26339 -1.89707,-2.52677 -2.71541,-3.80035a100.53225,82.60923 0 0 1 -7.43949,-15.72102l5.41843,-1.67093a160.02334,131.49417 0 0 0 9.59694,13.66292a36.62707,30.09715 0 0 0 5.56722,5.48147a5.44322,4.4728 0 0 0 2.20705,1.12075c0.14879,0 0,-0.07132 -0.17359,-0.05094s-0.14879,0 -0.16119,0s-0.07439,0 0.23558,-0.18339a39.67726,32.60354 0 0 0 5.61681,-5.24713c1.82267,-2.03772 3.57095,-4.20789 5.28204,-6.40863s3.32297,-4.50336 4.95966,-6.78561s3.18658,-4.64601 4.68688,-6.89769l10.39048,4.40148z" fill="#b55b52" id="svg_46"/>
   <path stroke="null" d="m643.05287,178.11631c-4.86046,-0.14264 -13.46547,14.40669 -13.46547,14.40669l9.26216,17.04554s18.16474,-19.64364 16.11889,-24.56473c-2.12025,-5.14525 -4.82327,-6.68373 -11.91558,-6.8875z" fill="#407BFF" id="svg_47"/>
   <path stroke="null" d="m643.05287,178.11631c-4.86046,-0.14264 -13.46547,14.40669 -13.46547,14.40669l9.26216,17.04554s18.16474,-19.64364 16.11889,-24.56473c-2.12025,-5.14525 -4.82327,-6.68373 -11.91558,-6.8875z" opacity="0.6" fill="#fff" id="svg_48"/>
   <path stroke="null" d="m597.49842,185.58456l1.4383,10.52483l-3.37257,1.93584c-4.62488,-0.87622 -6.55915,-6.7041 -6.55915,-6.7041l-2.08306,-3.73922a5.29443,4.35054 0 0 1 1.07873,-4.88034l0.94233,-0.76415a4.21571,3.46413 0 0 1 6.45995,0.43811l1.35151,1.58942a4.20331,3.45394 0 0 1 0.74395,1.59961z" fill="#b55b52" id="svg_49"/>
   <polygon stroke="null" points="666.5616455078125,439.2808532714844 655.129638671875,439.2808532714844 654.088134765625,417.51800537109375 665.532470703125,417.51800537109375 666.5616455078125,439.2808532714844 " fill="#b55b52" id="svg_50"/>
   <path stroke="null" d="m654.0881,438.19071l12.85791,0a0.81834,0.67245 0 0 1 0.83074,0.64188l0.43397,8.35466a2.05826,1.69131 0 0 1 -2.03346,1.67093c-4.47609,-0.06113 -6.60874,-0.27509 -12.26275,-0.27509c-3.47176,0 -11.46921,0.29547 -16.26768,0.29547s-4.58768,-3.90224 -2.54182,-4.25884c9.16297,-1.57923 13.72585,-3.7596 16.99923,-5.84826a3.28577,2.69998 0 0 1 1.98386,-0.58075z" fill="#263238" id="svg_51"/>
   <g stroke="null" opacity="0.2" id="svg_52">
    <polygon stroke="null" points="654.088134765625,417.5281677246094 654.6212768554688,428.7458801269531 666.0657348632812,428.7458801269531 665.532470703125,417.5281677246094 654.088134765625,417.5281677246094 " id="svg_53"/>
   </g>
   <path stroke="null" d="m638.46518,182.7725c-0.24798,5.93996 1.00433,19.81684 8.60501,52.13511l46.43479,-1.14112c-1.23991,-14.42707 -1.66149,-23.71908 4.63728,-50.81059a7.52628,6.18448 0 0 0 -6.50955,-7.31542c-3.40976,-0.32604 -7.56348,-0.63169 -11.75439,-0.69283a147.25222,120.9999 0 0 0 -21.07854,0.51962c-5.36883,0.52981 -11.15923,1.44678 -14.96577,2.10904a6.70794,5.51204 0 0 0 -5.36883,5.19619z" fill="#407BFF" id="svg_54"/>
   <path stroke="null" d="m638.46518,182.7725c-0.24798,5.93996 1.00433,19.81684 8.60501,52.13511l46.43479,-1.14112c-1.23991,-14.42707 -1.66149,-23.71908 4.63728,-50.81059a7.52628,6.18448 0 0 0 -6.50955,-7.31542c-3.40976,-0.32604 -7.56348,-0.63169 -11.75439,-0.69283a147.25222,120.9999 0 0 0 -21.07854,0.51962c-5.36883,0.52981 -11.15923,1.44678 -14.96577,2.10904a6.70794,5.51204 0 0 0 -5.36883,5.19619z" opacity="0.7" fill="#fff" id="svg_55"/>
   <path stroke="null" d="m677.07612,155.48741c-1.12832,5.61392 -2.08306,15.85347 2.80221,19.46024a26.28618,21.59985 0 0 1 -16.11889,9.44484c-10.70046,-4.46261 -4.95966,-8.92522 -4.95966,-8.92522c7.51388,-1.67093 7.15431,-6.27618 5.67881,-10.57577l12.59753,-9.40408z" fill="#b55b52" id="svg_56"/>
   <polygon stroke="null" points="663.7718505859375,184.39248657226562 665.1605224609375,182.16119384765625 672.5877075195312,183.54684448242188 663.7718505859375,184.39248657226562 " fill="#407BFF" id="svg_57"/>
   <path stroke="null" d="m665.16054,182.16118c2.38064,-0.8966 13.42827,-6.80599 13.86224,-8.65013a26.94334,22.13984 0 0 1 6.27397,1.36527s-1.98386,7.28485 -12.70912,12.22633a11.74199,9.64861 0 0 0 -7.42709,-4.94147z" fill="#fff" id="svg_58"/>
   <polygon stroke="null" points="663.7718505859375,184.39248657226562 663.15185546875,182.16119384765625 658.5889892578125,182.42608642578125 663.7718505859375,184.39248657226562 " fill="#407BFF" id="svg_59"/>
   <path stroke="null" d="m663.15188,182.16118c-3.71974,-2.03772 -2.33104,-6.21505 -1.97146,-8.05919a19.83863,16.30177 0 0 0 -5.41843,1.10037s-5.59201,4.21808 -0.17359,11.94105a17.3588,14.26405 0 0 1 7.56348,-4.98223z" fill="#fff" id="svg_60"/>
   <path stroke="null" d="m671.94287,159.32852l-7.43949,5.55279a21.07854,17.32063 0 0 1 0.76875,3.05658c2.8766,-0.40754 6.75753,-3.11771 6.96832,-5.60373a10.25409,8.42598 0 0 0 -0.29758,-3.00564z" opacity="0.2" id="svg_61"/>
   <path stroke="null" d="m680.68427,143.58712c-0.49597,9.31239 -0.47117,13.24519 -6.08798,18.12553c-8.45622,7.30523 -22.31846,4.76827 -25.18266,-4.48299c-2.60382,-8.33428 -1.33911,-22.17041 9.67133,-26.03189a15.48653,12.72557 0 0 1 21.59931,12.38935z" fill="#b55b52" id="svg_62"/>
   <path stroke="null" d="m672.58763,133.73473c-3.80654,5.24713 -9.22496,-1.42641 -13.53986,2.56753c-3.45936,3.19922 -9.12577,-0.16302 -12.39914,8.96597c1.14072,-7.84523 2.74021,-14.78367 12.49834,-17.08629c6.01358,-1.42641 17.51999,-1.9664 13.44067,5.55279z" fill="#263238" id="svg_63"/>
   <path stroke="null" d="m674.53429,130.0974c-3.33537,1.90527 -6.75753,4.64601 -6.34836,7.99806s6.26157,1.88489 7.04271,4.23846s-3.49656,7.30523 2.71541,7.79428c7.09231,-3.25017 9.07617,-3.96337 7.78666,-8.95579s-5.778,-11.73728 -11.19643,-11.07502z" fill="#263238" id="svg_64"/>
   <path stroke="null" d="m646.971,234.90761s-4.48849,69.41498 -4.72407,97.94309c-0.23558,29.6896 9.91931,93.73519 9.91931,93.73519l15.46173,0s-2.9386,-64.71804 -0.55796,-94.00009c2.59142,-31.92091 11.6304,-98.50346 11.6304,-98.50346l-31.72941,0.82528z" fill="#407BFF" id="svg_65"/>
   <polygon stroke="null" points="668.9298095703125,427.02398681640625 650.7774658203125,427.02398681640625 650.0335693359375,422.26593017578125 670.43017578125,421.6851501464844 668.9298095703125,427.02398681640625 " fill="#263238" id="svg_66"/>
   <path stroke="null" d="m675.43943,259.00366c-1.66149,-1.71169 -3.85613,-0.81509 -6.72034,4.07544c-9.77052,16.65837 -4.81087,43.22007 -0.63236,58.52336c1.88467,-19.07307 4.98446,-44.16761 7.35269,-62.59881z" opacity="0.2" id="svg_67"/>
   <path stroke="null" d="m661.52759,147.15313c0,0.75396 -0.45877,1.37546 -1.06633,1.38565s-1.10352,-0.60113 -1.11592,-1.35508s0.45877,-1.38565 1.05393,-1.39584s1.12832,0.61132 1.12832,1.36527z" fill="#263238" id="svg_68"/>
   <path stroke="null" d="m651.13711,147.08181c0,0.75396 -0.47117,1.37546 -1.06633,1.38565s-1.10352,-0.60113 -1.12832,-1.35508s0.47117,-1.38565 1.06633,-1.38565s1.10352,0.59094 1.12832,1.35508z" fill="#263238" id="svg_69"/>
   <path stroke="null" d="m650.28157,145.75729l-2.23185,-0.48905s1.16552,1.40603 2.23185,0.48905z" fill="#263238" id="svg_70"/>
   <path stroke="null" d="m654.75766,147.77463a24.32712,19.99005 0 0 1 -3.18658,4.89053a3.95533,3.25017 0 0 0 3.29817,0.45849l-0.11159,-5.34902z" fill="#a02724" id="svg_71"/>
   <path stroke="null" d="m660.41167,155.61986a7.97265,6.55127 0 0 1 -1.36391,0.10189a0.26038,0.21396 0 0 1 -0.27278,-0.21396a0.27278,0.22415 0 0 1 0.26038,-0.22415a7.31549,6.01128 0 0 0 5.91439,-2.43508a0.27278,0.22415 0 0 1 0.45877,0.23434a7.61307,6.25581 0 0 1 -4.99685,2.53696z" fill="#263238" id="svg_72"/>
   <path stroke="null" d="m683.90804,152.35951a8.27023,6.7958 0 0 1 -4.62488,3.55582c-2.72781,0.82528 -4.3273,-1.13094 -3.71974,-3.35205c0.50836,-2.03772 2.47983,-4.8294 5.36883,-4.69695a3.71974,3.05658 0 0 1 2.97579,4.49318z" fill="#b55b52" id="svg_73"/>
   <path stroke="null" d="m679.12198,168.34543a8.10904,6.66335 0 1 1 8.10904,-6.66335a8.12144,6.67354 0 0 1 -8.10904,6.66335zm0,-12.83765a7.51388,6.1743 0 1 0 7.50148,6.1743a7.52628,6.18448 0 0 0 -7.50148,-6.1743z" fill="#407BFF" id="svg_74"/>
   <path stroke="null" d="m665.64411,143.05731a0.54556,0.4483 0 0 1 -0.57036,-0.23434c-1.16552,-1.82376 -4.3645,-2.18036 -4.4017,-2.18036a0.54556,0.4483 0 0 1 0.14879,-0.88641c0.14879,0 3.78174,0.42792 5.20764,2.64904a0.54556,0.4483 0 0 1 -0.22318,0.61132l-0.16119,0.04075z" fill="#263238" id="svg_75"/>
   <path stroke="null" d="m647.88853,142.32373a0.53316,0.43811 0 0 1 -0.50836,-0.14264a0.53316,0.43811 0 0 1 0.062,-0.63169a5.39363,4.43204 0 0 1 4.78607,-1.01886a0.55796,0.45849 0 0 1 0.37197,0.56037a0.53316,0.43811 0 0 1 -0.66955,0.29547l0,0a4.26531,3.50488 0 0 0 -3.78174,0.84565a0.59516,0.48905 0 0 1 -0.26038,0.0917z" fill="#263238" id="svg_76"/>
   <path stroke="null" d="m705.24697,186.91926c2.08306,4.90072 3.91813,9.79125 5.57961,14.79386c0.84314,2.49621 1.64909,5.01279 2.33104,7.59051c0.33478,1.29395 0.66955,2.59809 0.95473,3.95318a44.63692,36.67899 0 0 1 0.61996,4.37091l0,0.64188l0,0.75396c0,0.4483 -0.07439,0.72339 -0.12399,1.10037c-0.07439,0.70301 -0.18599,1.3449 -0.29758,2.03772c-0.22318,1.31433 -0.48357,2.59809 -0.74395,3.87167c-0.52076,2.55734 -1.14072,5.0943 -1.76068,7.59051c-1.23991,5.02298 -2.71541,10.00521 -4.3769,14.96706l-5.71601,-0.77433c0.33478,-5.0943 0.80594,-10.18861 1.30191,-15.28291l0.74395,-7.54976c0.11159,-1.2532 0.21079,-2.49621 0.29758,-3.70865c0,-0.61132 0.08679,-1.22263 0.09919,-1.79319c0,-0.2649 0,-0.62151 0,-0.8049l0,-0.20377l0,-0.30566a37.82979,31.08544 0 0 0 -0.74395,-3.17885c-0.32238,-1.15131 -0.69435,-2.323 -1.09112,-3.50488c-0.80594,-2.36376 -1.66149,-4.75808 -2.54182,-7.13203l-5.56722,-14.34556l11.03524,-3.08715z" fill="#b55b52" id="svg_77"/>
   <path stroke="null" d="m691.63271,175.64048c15.22615,1.54867 18.23914,16.83158 20.40899,20.67268l-14.94097,10.30068s-9.46055,-13.07198 -10.83685,-18.14591c-1.4259,-5.28789 -0.13639,-13.38783 5.36883,-12.82746z" fill="#407BFF" id="svg_78"/>
   <path stroke="null" d="m691.63271,175.64048c15.22615,1.54867 18.23914,16.83158 20.40899,20.67268l-14.94097,10.30068s-9.46055,-13.07198 -10.83685,-18.14591c-1.4259,-5.28789 -0.13639,-13.38783 5.36883,-12.82746z" opacity="0.7" fill="#fff" id="svg_79"/>
   <path stroke="null" d="m649.57482,439.83107a4.02972,3.3113 0 0 1 -2.70301,-0.58075a1.3887,1.14112 0 0 1 -0.35958,-1.09018a0.99193,0.81509 0 0 1 0.53316,-0.59094c1.4755,-0.63169 5.8028,1.28376 6.28637,1.50791a0.24798,0.20377 0 0 1 0.12399,0.22415a0.33478,0.27509 0 0 1 -0.24798,0.19358a20.66937,16.98441 0 0 1 -3.63295,0.33622zm-1.79788,-1.94602a1.09112,0.8966 0 0 0 -0.52076,0.08151a0.38437,0.31585 0 0 0 -0.21079,0.23434a0.92994,0.76415 0 0 0 0.22318,0.7132c0.63236,0.51962 2.47983,0.60113 5.08365,0.25472a13.63906,11.20747 0 0 0 -4.57528,-1.27358l0,-0.01019z" fill="#407BFF" id="svg_80"/>
   <path stroke="null" d="m653.15817,439.50504l-0.11159,0c-1.30191,-0.50943 -3.71974,-2.53696 -3.39737,-3.59658c0.07439,-0.25472 0.33478,-0.57056 1.09112,-0.63169a1.81027,1.48754 0 0 1 1.4507,0.38717c1.31431,1.01886 1.23991,3.51507 1.23991,3.61696a0.28518,0.23434 0 0 1 -0.13639,0.20377a0.24798,0.20377 0 0 1 -0.13639,0.02038zm-2.25664,-3.81054l-0.16119,0c-0.49597,0 -0.55796,0.20377 -0.57036,0.25472c-0.21079,0.64188 1.4259,2.23131 2.72781,2.92413a5.70361,4.68676 0 0 0 -1.09112,-2.89356a1.23991,1.01886 0 0 0 -0.90514,-0.28528z" fill="#407BFF" id="svg_81"/>
   <polygon stroke="null" points="735.9224243164062,435.7352600097656 724.7384033203125,437.71185302734375 715.4266967773438,417.1003112792969 726.6106567382812,415.1236877441406 735.9224243164062,435.7352600097656 " fill="#b55b52" id="svg_82"/>
   <path stroke="null" d="m724.04407,436.77449l12.56033,-2.23131a0.91754,0.75396 0 0 1 1.06633,0.46868l3.71974,7.89617a1.81027,1.48754 0 0 1 -1.33911,1.94602c-4.4017,0.7132 -6.55915,0.87622 -12.08916,1.85433c-3.39737,0.60113 -9.41095,2.49621 -14.19702,2.22112s-4.77367,-4.18752 -2.75261,-4.42186c9.05137,-1.0698 8.95218,-4.27922 11.33282,-6.83656a3.00059,2.46564 0 0 1 1.69868,-0.8966z" fill="#263238" id="svg_83"/>
   <path stroke="null" d="m722.68017,438.64919a4.42649,3.63733 0 0 1 -2.8766,-0.08151a1.52509,1.2532 0 0 1 -0.76875,-0.96792a0.84314,0.69283 0 0 1 0.28518,-0.66226c1.23991,-0.85584 6.19957,0.21396 6.73273,0.34641a0.26038,0.21396 0 0 1 0.21079,0.19358a0.28518,0.23434 0 0 1 -0.16119,0.22415a19.70224,16.1897 0 0 1 -3.42216,0.94754zm-2.47983,-1.53848a1.10352,0.90679 0 0 0 -0.47117,0.16302a0.34718,0.28528 0 0 0 -0.11159,0.2649a0.99193,0.81509 0 0 0 0.49597,0.64188c0.81834,0.37698 2.69061,0.14264 5.07125,-0.63169a14.54419,11.95124 0 0 0 -5.03405,-0.43811l0.0496,0z" fill="#407BFF" id="svg_84"/>
   <path stroke="null" d="m726.00314,437.71184l0,0c-1.4755,-0.25472 -4.66208,-1.76263 -4.74887,-2.84262c0,-0.25472 0.11159,-0.59094 0.83074,-0.78452a1.97146,1.61999 0 0 1 1.56229,0.11207c1.67388,0.7132 2.62862,3.1279 2.66582,3.22979a0.27278,0.22415 0 0 1 -0.062,0.21396a0.23558,0.19358 0 0 1 -0.24798,0.07132zm-3.71974,-3.23998l-0.16119,0c-0.47117,0.13245 -0.45877,0.29547 -0.45877,0.34641c0,0.64188 2.26904,1.88489 3.81894,2.31281a6.37316,5.23694 0 0 0 -2.20705,-2.56753a1.4135,1.1615 0 0 0 -0.91754,-0.0917l-0.07439,0z" fill="#407BFF" id="svg_85"/>
   <g stroke="null" opacity="0.2" id="svg_86">
    <polygon stroke="null" points="715.4266967773438,417.1105041503906 720.22509765625,427.7372131347656 731.4091796875,425.7503967285156 726.6106567382812,415.1236877441406 715.4266967773438,417.1105041503906 " id="svg_87"/>
   </g>
   <path stroke="null" d="m693.50498,233.76648c11.15923,14.54933 8.02225,68.0599 9.78292,96.62875c10.46488,25.33907 28.9272,92.99142 28.9272,92.99142l-15.11456,2.6796s-33.3413,-67.14292 -40.26002,-95.82385c-7.63787,-31.656 -16.93723,-96.47593 -16.93723,-96.47593l33.60168,0z" fill="#407BFF" id="svg_88"/>
   <polygon stroke="null" points="733.343505859375,423.65155029296875 715.6126098632812,426.7998352050781 713.7528076171875,422.2557067871094 733.541748046875,418.14971923828125 733.343505859375,423.65155029296875 " fill="#263238" id="svg_89"/>
   <path stroke="null" d="m660.69685,145.82861l-2.23185,-0.48905s1.16552,1.40603 2.23185,0.48905z" fill="#263238" id="svg_90"/>
   <path stroke="null" d="m694.11254,231.5148l1.31431,3.38262c0.17359,0.2649 -0.19839,0.54 -0.74395,0.56037l-47.7863,1.1615c-0.40917,0 -0.76875,-0.14264 -0.79355,-0.36679l-0.54556,-3.40299c0,-0.23434 0.30998,-0.43811 0.76875,-0.45849l47.01755,-1.14112a0.83074,0.68264 0 0 1 0.76875,0.2649z" fill="#263238" id="svg_91"/>
   <path stroke="null" d="m687.95017,235.9876l1.23991,0c0.24798,0 0.43397,-0.11207 0.42157,-0.24453l-0.75635,-4.42186c0,-0.13245 -0.24798,-0.23434 -0.49597,-0.22415l-1.23991,0c-0.24798,0 -0.43397,0.11207 -0.40917,0.24453l0.74395,4.42186c0.0248,0.13245 0.24798,0.23434 0.49597,0.22415z" fill="#407BFF" id="svg_92"/>
   <path stroke="null" d="m650.45516,236.90457l1.23991,0c0.24798,0 0.43397,-0.11207 0.40917,-0.24453l-0.74395,-4.42186c0,-0.13245 -0.24798,-0.23434 -0.49597,-0.22415l-1.23991,0c-0.24798,0 -0.43397,0.11207 -0.42157,0.24453l0.75635,4.42186c0.0248,0.13245 0.24798,0.23434 0.49597,0.22415z" fill="#407BFF" id="svg_93"/>
   <path stroke="null" d="m669.20266,236.44609l1.23991,0c0.24798,0 0.43397,-0.11207 0.40917,-0.24453l-0.74395,-4.42186c0,-0.13245 -0.24798,-0.23434 -0.49597,-0.22415l-1.23991,0c-0.24798,0 -0.43397,0.11207 -0.40917,0.24453l0.74395,4.42186c0.0248,0.13245 0.26038,0.23434 0.49597,0.22415z" fill="#407BFF" id="svg_94"/>
   <path stroke="null" d="m702.44476,246.24753l-8.36942,7.46825l11.618,0.41773c0,0.11207 3.78174,-5.0943 1.4135,-8.51768l-4.66208,0.63169z" fill="#b55b52" id="svg_95"/>
   <path stroke="null" d="m697.12553,261.53044l3.37257,0a3.47176,2.85281 0 0 0 3.29817,-2.03772l1.92187,-5.34902l-11.618,-0.41773l-0.47117,4.74789a3.48416,2.863 0 0 0 3.49656,3.05658z" fill="#b55b52" id="svg_96"/>
  </g>
  <g stroke="null" id="freepik--character-1--inject-31">
   <polygon stroke="null" points="309.7826843261719,438.2248840332031 299.285888671875,438.09173583984375 299.9442443847656,417.5840759277344 310.4410095214844,417.71728515625 309.7826843261719,438.2248840332031 " fill="#ffc3bd" id="svg_97"/>
   <path stroke="null" d="m299.16398,437.06737l11.47209,0.15365a0.80463,0.67608 0 0 1 0.81682,0.61461l0.99969,7.88755a1.71898,1.44434 0 0 1 -1.73118,1.54678c-4.13288,-0.11268 -10.08227,-0.38926 -15.28799,-0.46096c-6.09569,-0.08195 -5.48612,0.13317 -12.61808,0c-4.31575,-0.05122 -5.01066,-3.7389 -3.15757,-4.09743c8.42424,-1.40337 9.27764,-1.47507 16.88506,-5.07057a5.24229,4.40474 0 0 1 2.62115,-0.57364z" fill="#263238" id="svg_98"/>
   <path stroke="null" d="m296.7379,174.10456c-2.43828,6.41248 -5.10819,12.74301 -7.90001,19.04281c-1.38982,3.15502 -2.80402,6.2998 -4.27917,9.43433s-2.95031,6.26907 -4.51081,9.4036c-0.35355,0.74778 -0.8534,1.64922 -1.29229,2.48919s-0.92654,1.64922 -1.40201,2.44821s-0.97531,1.58775 -1.48735,2.35602s-0.99969,1.54678 -1.52392,2.29456c-2.02377,3.07307 -4.25479,5.9003 -6.46143,8.7685c-4.48643,5.70567 -9.24107,11.14501 -14.36145,16.45118l-6.63211,-3.64671l10.52116,-17.86479a178.2136,149.74058 0 0 0 9.09477,-17.58822l7.41236,-18.96086c2.43828,-6.33053 5.05942,-12.6713 7.70495,-18.94037l15.11731,4.31254z" fill="#ffc3bd" id="svg_99"/>
   <path stroke="null" d="m303.79671,169.99689c-2.57238,7.10904 -11.4599,24.86116 -11.4599,24.86116l-20.3718,-11.94401s3.58427,-11.55475 11.64277,-16.99409c11.43551,-7.71341 23.50498,-5.09106 20.18893,4.07694z" fill="#263238" id="svg_100"/>
   <path stroke="null" d="m291.67847,175.77427c-7.4977,1.52629 -13.17888,7.87731 -12.26453,11.51378l12.92286,7.57s2.76744,-8.92215 7.65619,-14.86343c-2.80402,-2.40724 -6.14446,-4.66083 -8.31452,-4.22035z" opacity="0.2" id="svg_101"/>
   <path stroke="null" d="m288.3868,191.92838a14.38583,12.08742 0 0 0 2.02377,-1.54678s-15.1295,-8.86069 -18.9454,-8.95288a4.87655,4.09743 0 0 0 -1.10942,2.38675s13.21546,8.24608 18.03105,8.11291z" fill="#407BFF" id="svg_102"/>
   <path stroke="null" d="m250.60571,240.1244l-10.13104,5.49056l8.10727,7.4061s8.53397,-3.34965 7.01004,-9.79286l-4.98627,-3.1038z" fill="#ffc3bd" id="svg_103"/>
   <path stroke="null" d="m236.23208,254.20932l4.99847,2.13066a2.43828,2.04871 0 0 0 2.58457,-0.20487l4.8156,-3.07307l-8.10727,-7.4061l-5.10819,5.53153a2.43828,2.04871 0 0 0 0.81682,3.02185z" fill="#ffc3bd" id="svg_104"/>
   <polygon stroke="null" points="299.9442443847656,417.5840759277344 299.60284423828125,428.15545654296875 310.1118469238281,428.2988586425781 310.4532165527344,417.72747802734375 299.9442443847656,417.5840759277344 " opacity="0.2" id="svg_105"/>
   <path stroke="null" d="m347.44185,165.61264c-9.81406,33.58868 -5.92501,69.23632 -6.61992,76.4478l-56.29979,-0.76827c-3.65741,-37.24564 0,-61.69705 2.29198,-72.51427a10.74061,9.02459 0 0 1 9.42394,-7.35489l0.69491,-0.06146c1.53611,-0.13317 3.19414,-0.24585 4.87655,-0.32779c0.95093,-0.05122 1.92624,-0.07171 2.90155,-0.09219a210.91088,177.21384 0 0 1 23.94387,1.49556c1.49954,0.15365 3.03565,0.34828 4.51081,0.55315s2.73087,0.3995 3.99877,0.61461c5.81529,0.95265 10.27733,2.00774 10.27733,2.00774z" fill="#263238" id="svg_106"/>
   <path stroke="null" d="m336.11606,180.01511c-0.86559,3.25746 0.96312,18.07991 5.16915,21.73687c0.32917,-4.74278 0.84121,-9.70067 1.58488,-14.77123l-6.75402,-6.96563z" opacity="0.2" id="svg_107"/>
   <path stroke="null" d="m327.2895,139.68615c-1.77994,6.35102 -3.80371,18.07991 1.38982,22.72025c-4.32794,3.22673 -10.02131,7.39586 -19.12828,6.60711c-7.42455,-0.6351 -7.31483,-5.47007 -4.79121,-8.10267c8.65588,-1.17801 8.66807,-6.5354 7.38798,-11.6367l15.14169,-9.58799z" fill="#ffc3bd" id="svg_108"/>
   <path stroke="null" d="m325.78996,146.85665l-6.24199,-2.19213l-2.32855,1.47507c0.24383,0.71705 -0.37793,3.31892 0,4.09743c1.07284,2.17164 5.3764,3.30867 8.15603,2.93991a51.70364,43.443 0 0 1 0.41451,-6.32029z" opacity="0.2" id="svg_109"/>
   <path stroke="null" d="m321.57174,112.24361c-4.37671,2.72479 -4.3889,3.07307 -8.97286,2.32529s-17.5434,-4.72229 -14.09324,4.68131c-10.89909,0.53267 -9.36298,10.17187 -4.48643,15.60096s9.7531,5.95152 10.31391,10.40747c0.7071,5.23447 11.25264,6.24858 12.7278,3.30867l15.05635,-10.79673c4.99847,0.25609 0.17068,-6.58662 2.64553,-10.52015a5.21791,4.38425 0 0 0 0.07315,-3.97451a8.53397,7.1705 0 0 0 3.45016,-2.54041c5.03504,-6.21785 -9.60681,-12.87617 -16.71438,-8.49192z" fill="#263238" id="svg_110"/>
   <path stroke="null" d="m304.50381,131.30691c1.31667,8.69679 1.5605,13.83907 7.16853,17.99796c8.42424,6.24858 20.95698,1.44434 22.76131,-7.42659c1.62145,-7.98999 -0.80463,-20.86616 -11.26484,-23.70363a14.37364,12.07717 0 0 0 -18.665,13.13226z" fill="#ffc3bd" id="svg_111"/>
   <path stroke="null" d="m305.54007,120.98138c5.44955,-1.02436 10.44801,4.28181 7.4977,7.9695s3.34044,8.27681 -3.2551,10.65332c-4.60834,1.65946 -6.83936,-2.36627 -9.07039,-5.12179c-3.42578,-4.21011 -0.97531,-12.42546 4.82779,-13.50103z" fill="#263238" id="svg_112"/>
   <path stroke="null" d="m300.21244,119.86483c6.65649,3.01161 8.27795,5.94127 18.16516,3.07307c5.83967,-1.67995 7.31483,2.18188 14.82472,0.81949c1.45077,-7.44708 -8.88752,-9.09629 -14.10543,-8.27681s-18.88445,4.38425 -18.88445,4.38425z" fill="#263238" id="svg_113"/>
   <path stroke="null" d="m300.21244,121.3604a1.80432,1.51605 0 0 1 -0.58519,-0.11268c-7.13196,-2.04871 -7.03443,-6.56613 -7.02224,-6.76076a1.81652,1.52629 0 0 1 1.82871,-1.44434a1.77994,1.49556 0 0 1 1.71898,1.51605c0,0.15365 0.10972,2.58138 4.60834,3.86183a1.77994,1.49556 0 0 1 -0.57299,2.90918l0.02438,0.03073z" fill="#263238" id="svg_114"/>
   <path stroke="null" d="m302.8214,139.75786a10.05789,8.45095 0 0 0 5.43736,3.57501c2.70649,0.61461 3.35263,-1.87457 1.99939,-4.39449c-1.21914,-2.26383 -4.08411,-5.31642 -6.52239,-4.81448s-2.64553,3.41111 -0.91435,5.63397z" fill="#ffc3bd" id="svg_115"/>
   <path stroke="null" d="m317.15846,329.06936c-0.4267,-44.46736 11.28922,-87.17282 11.28922,-87.17282l-43.88897,-0.59413s5.04723,64.22721 6.80279,91.16782c1.82871,27.96496 4.37671,93.63652 4.37671,93.63652l17.81161,0.22536s6.07131,-62.16826 3.60865,-97.26274z" fill="#407BFF" id="svg_116"/>
   <path stroke="null" d="m318.90183,266.3582c-12.50836,14.39222 -6.88813,41.45575 -1.75556,60.5805a488.20382,410.20395 0 0 1 6.38828,-62.95701l-4.63272,2.37651z" opacity="0.2" id="svg_117"/>
   <polygon stroke="null" points="294.6287841796875,426.3833312988281 315.8174133300781,426.6598815917969 317.0121765136719,420.89276123046875 293.3974304199219,420.2781677246094 294.6287841796875,426.3833312988281 " fill="#263238" id="svg_118"/>
   <path stroke="null" d="m321.64489,133.42733c0,0.70681 0.54861,1.25996 1.09722,1.21899s0.96312,-0.6351 0.90216,-1.35215s-0.54861,-1.25996 -1.09722,-1.21899s-0.97531,0.6351 -0.90216,1.35215z" fill="#263238" id="svg_119"/>
   <path stroke="null" d="m331.59305,132.82296c0.06096,0.71705 0.54861,1.25996 1.10942,1.22923s0.95093,-0.64535 0.90216,-1.35215s-0.54861,-1.25996 -1.10942,-1.22923s-0.95093,0.64535 -0.90216,1.35215z" fill="#263238" id="svg_120"/>
   <path stroke="null" d="m328.67931,132.93564a30.02737,25.22992 0 0 0 4.523,5.83884c-1.40201,1.25996 -3.99877,0.88095 -3.99877,0.88095l-0.52423,-6.71979z" fill="#ed847e" id="svg_121"/>
   <path stroke="null" d="m323.58332,141.73487a6.9369,5.82859 0 0 1 -4.96189,-2.04871a0.25602,0.21512 0 0 1 0.40232,-0.25609a6.65649,5.59299 0 0 0 5.63242,1.86433a0.24383,0.20487 0 0 1 0.26821,0.19463a0.25602,0.21512 0 0 1 -0.23164,0.22536a8.41205,7.06807 0 0 1 -1.10942,0.02049z" fill="#263238" id="svg_122"/>
   <path stroke="null" d="m319.23099,130.68205a0.43889,0.36877 0 0 1 -0.24383,-0.06146a0.48766,0.40974 0 0 1 -0.13411,-0.58388a4.98627,4.18962 0 0 1 3.91343,-1.97701a0.49985,0.41999 0 0 1 0,0.83997l0,0a3.97439,3.33941 0 0 0 -3.08442,1.598a0.49985,0.41999 0 0 1 -0.45108,0.18438z" fill="#263238" id="svg_123"/>
   <path stroke="null" d="m333.87284,128.56163a0.52423,0.44047 0 0 1 -0.4267,-0.17414a3.84028,3.22673 0 0 0 -3.15757,-1.41361a0.49985,0.41999 0 0 1 -0.52423,-0.3995a0.49985,0.41999 0 0 1 0.46327,-0.44047a4.87655,4.09743 0 0 1 4.02316,1.75165a0.49985,0.41999 0 0 1 -0.09753,0.59413a0.59738,0.50194 0 0 1 -0.2804,0.08195z" fill="#263238" id="svg_124"/>
   <path stroke="null" d="m297.26213,437.85613a0.24383,0.20487 0 0 0 0.15849,-0.1639a0.26821,0.22536 0 0 0 -0.12191,-0.22536c-0.47546,-0.20487 -4.6693,-2.04871 -5.96158,-1.48532a0.84121,0.70681 0 0 0 -0.4267,0.55315l0,0a1.42639,1.1985 0 0 0 0.45108,1.02436c1.1338,0.8707 4.15726,0.5634 5.86405,0.30731l0.03657,-0.01024zm-5.59584,-1.53654c0.79244,-0.22536 3.07223,0.54291 4.73026,1.22923c-2.32855,0.29706 -4.05973,0.19463 -4.69368,-0.29706a0.91435,0.76827 0 0 1 -0.29259,-0.67608a0.29259,0.24585 0 0 1 0.15849,-0.22536l0.09753,-0.03073z" fill="#407BFF" id="svg_125"/>
   <path stroke="null" d="m297.26213,437.85613l0.06096,0a0.25602,0.21512 0 0 0 0.10972,-0.18438c0,-0.10244 -0.25602,-2.48919 -1.57269,-3.4316a1.85309,1.55702 0 0 0 -1.37763,-0.37901l0,0c-0.68272,0.05122 -0.88997,0.34828 -0.93874,0.57364c-0.20725,1.02436 2.2676,2.95015 3.52331,3.44184a0.35355,0.29706 0 0 0 0.19506,-0.02049zm-2.98689,-3.56476a1.06065,0.89119 0 0 1 0.25602,0l0,0a1.35324,1.13704 0 0 1 1.01188,0.27658a5.87625,4.9374 0 0 1 1.32886,2.74528c-1.28009,-0.66583 -2.96251,-2.19213 -2.84059,-2.78625c0.01219,-0.08195 0.03657,-0.17414 0.24383,-0.2356zm0.23164,-0.24585l0,0z" fill="#407BFF" id="svg_126"/>
   <polygon stroke="null" points="384.73529052734375,438.2248840332031 374.1897277832031,438.09173583984375 367.4356994628906,417.5840759277344 377.9934387207031,417.71728515625 384.73529052734375,438.2248840332031 " fill="#ffc3bd" id="svg_127"/>
   <path stroke="null" d="m373.44606,437.06737l11.50866,0.15365a0.99969,0.83997 0 0 1 0.93874,0.61461l2.60896,7.88755a1.4142,1.18825 0 0 1 -1.4142,1.54678c-4.15726,-0.11268 -5.5105,-0.38926 -10.72841,-0.46096c-6.09569,-0.08195 -3.24291,0.13317 -10.39925,0c-4.32794,-0.05122 -5.76652,-3.71842 -3.98658,-4.09743c5.63242,-1.02436 6.77841,-2.98088 8.98505,-5.07057a3.2551,2.73503 0 0 1 2.48704,-0.57364z" fill="#263238" id="svg_128"/>
   <polygon stroke="null" points="367.4356994628906,417.5840759277344 370.9224548339844,428.15545654296875 381.4801940917969,428.2988586425781 377.9934387207031,417.72747802734375 367.4356994628906,417.5840759277344 " opacity="0.2" id="svg_129"/>
   <path stroke="null" d="m358.35313,329.69422c-5.97378,-39.74507 -10.43582,-78.7526 -17.5312,-87.63378l-37.1959,-0.50194s21.51779,64.53452 28.78385,91.04489c7.53427,27.52449 33.70917,90.82978 33.70917,90.82978l16.9704,0.20487s-13.59339,-63.20286 -24.73631,-93.94382z" fill="#407BFF" id="svg_130"/>
   <polygon stroke="null" points="363.7782897949219,426.3833312988281 384.9547424316406,426.6598815917969 386.14947509765625,420.89276123046875 362.54693603515625,420.2781677246094 363.7782897949219,426.3833312988281 " fill="#263238" id="svg_131"/>
   <path stroke="null" d="m374.1044,437.77418a0.23164,0.19463 0 0 0 0.23164,-0.10244a0.25602,0.21512 0 0 0 0,-0.24585c-0.35355,-0.33804 -3.5355,-3.28819 -4.98627,-3.07307a0.78025,0.65559 0 0 0 -0.62176,0.3995l0,0a1.35324,1.13704 0 0 0 0,1.08582c0.7071,1.14728 3.65741,1.73116 5.3764,1.97701l0,-0.04097zm-4.62053,-3.07307c0.84121,0 2.66991,1.40337 3.93782,2.51992c-2.30417,-0.38926 -3.88905,-1.02436 -4.29137,-1.63897a0.91435,0.76827 0 0 1 0,-0.71705a0.29259,0.24585 0 0 1 0.24383,-0.1639l0.10972,0z" fill="#407BFF" id="svg_132"/>
   <path stroke="null" d="m374.1044,437.77418l0.07315,0a0.25602,0.21512 0 0 0 0.17068,-0.15365c0,-0.09219 0.79244,-2.397 0,-3.6672a1.81652,1.52629 0 0 0 -1.14599,-0.74778l0,0c-0.65833,-0.15365 -0.97531,0.06146 -1.10942,0.26633c-0.60957,0.8707 0.92654,3.41111 1.90186,4.24084a0.24383,0.20487 0 0 0 0.10972,0.06146zm-1.35324,-4.19987l0.26821,0l0,0a1.31667,1.10631 0 0 1 0.82901,0.55315a5.85186,4.91692 0 0 1 0.13411,2.96039c-0.93874,-1.02436 -1.88966,-2.90918 -1.52392,-3.44184a0.2804,0.2356 0 0 1 0.31698,-0.11268l-0.02438,0.04097zm0.32917,-0.17414l0,0z" fill="#407BFF" id="svg_133"/>
   <path stroke="null" d="m351.90389,175.19038l0.4267,0.80924l0.51204,0.92192l1.04846,1.88482c0.74367,1.25996 1.52392,2.50968 2.34075,3.7389c1.62145,2.48919 3.36482,4.91692 5.2301,7.25245a95.33659,80.10475 0 0 0 5.96158,6.76076c1.03627,1.09606 2.19445,2.04871 3.26729,3.14478l1.73118,1.47507l0.86559,0.74778l0.10972,0.09219l0,0s0,0 -0.08534,0s-0.30478,0 -0.26821,0a1.08503,0.91168 0 0 0 0.64614,0.06146a10.69184,8.98362 0 0 0 3.2551,-0.81949a46.22971,38.84364 0 0 0 8.02193,-4.21011a178.83536,150.263 0 0 0 15.84879,-11.52402l6.19322,4.09743a103.96809,87.35721 0 0 1 -6.61992,7.77487a95.17811,79.97159 0 0 1 -7.68057,7.1705a52.66676,44.25224 0 0 1 -9.64338,6.45345a24.38276,20.48715 0 0 1 -6.87594,2.41748a15.39771,12.93763 0 0 1 -4.79121,0.28682a13.61777,11.44207 0 0 1 -5.42516,-1.41361c-0.40232,-0.21512 -0.82901,-0.43023 -1.21914,-0.66583l-0.57299,-0.35853l-0.2804,-0.18438l-0.13411,-0.10244l-1.14599,-0.81949l-2.2676,-1.63897c-1.43858,-1.15752 -2.92593,-2.28432 -4.2426,-3.52379a86.5588,72.72938 0 0 1 -7.58304,-7.63146a94.53196,79.42868 0 0 1 -6.3639,-8.2973c-0.95093,-1.44434 -1.85309,-2.89893 -2.71868,-4.39449c-0.4267,-0.74778 -0.86559,-1.49556 -1.21914,-2.26383l-0.59738,-1.17801l-0.60957,-1.31118l14.88568,-4.75302z" fill="#ffc3bd" id="svg_134"/>
   <path stroke="null" d="m347.44185,165.61264c9.7531,2.51992 14.22734,20.79446 14.22734,20.79446l-14.8491,10.96063a60.88375,51.15641 0 0 1 -13.21546,-17.28091c-5.01066,-11.28842 2.07253,-17.537 13.83722,-14.47417z" fill="#263238" id="svg_135"/>
   <path stroke="null" d="m362.38848,186.74513a15.06855,12.66106 0 0 0 -1.04846,-2.13066s-15.01978,9.0041 -16.39741,11.98498a4.87655,4.09743 0 0 0 2.30417,1.67995s13.62996,-7.70317 15.14169,-11.53427z" fill="#407BFF" id="svg_136"/>
   <path stroke="null" d="m399.07234,187.47243l5.69337,-7.55976l8.44863,8.04121s-6.09569,6.32029 -10.65527,4.09743l-3.48673,-4.57888z" fill="#ffc3bd" id="svg_137"/>
   <path stroke="null" d="m415.53071,177.79225l2.43828,3.23697a3.65741,3.07307 0 0 1 -0.7071,3.96426l-4.01096,2.96039l-8.44863,-8.04121l5.62023,-3.07307a3.65741,3.07307 0 0 1 5.10819,0.95265z" fill="#ffc3bd" id="svg_138"/>
  </g>
  <g stroke="null" id="freepik--Heart--inject-31">
   <path stroke="null" d="m603.35271,175.53554a63.23109,59.76751 0 0 0 -44.8513,-17.53083l-27.12656,0l0,5.75458a63.5265,60.04674 0 0 0 -17.72474,11.80053a63.24393,59.77965 0 0 0 -45.33937,-17.55511l-27.11372,0l0,5.97311a63.42375,59.94962 0 0 0 -17.24951,96.38316l62.29348,58.88126l-0.29541,0l0,25.90775l19.67703,0a19.38162,18.31996 0 0 0 13.70456,-5.36609l84.02555,-79.42293a63.43659,59.96176 0 0 0 0,-84.82543z" fill="#407BFF" id="svg_139"/>
   <path stroke="null" d="m603.35271,175.53554a63.23109,59.76751 0 0 0 -44.8513,-17.53083l-27.12656,0l0,5.75458a63.5265,60.04674 0 0 0 -17.72474,11.80053a63.24393,59.77965 0 0 0 -45.33937,-17.55511l-27.11372,0l0,5.97311a63.42375,59.94962 0 0 0 -17.24951,96.38316l62.29348,58.88126l-0.29541,0l0,25.90775l19.67703,0a19.38162,18.31996 0 0 0 13.70456,-5.36609l84.02555,-79.42293a63.43659,59.96176 0 0 0 0,-84.82543z" opacity="0.2" id="svg_140"/>
   <path stroke="null" d="m575.64817,175.53554a63.43659,59.96176 0 0 0 -89.7026,0a63.43659,59.96176 0 0 0 -89.7026,84.80115l89.7026,84.78901l89.7026,-84.78901a63.43659,59.96176 0 0 0 0,-84.80115z" fill="#407BFF" id="svg_141"/>
   <rect stroke="null" transform="matrix(0.908209 -0.858461 0.908209 0.858461 -327.217 161.411)" x="337.17104" y="512.98198" width="1" height="15.27" fill="#407BFF" id="svg_142"/>
   <rect stroke="null" transform="matrix(0.908209 -0.858461 0.908209 0.858461 -340.126 161.407)" x="344.26104" y="541.38198" width="1" height="6.96" fill="#407BFF" id="svg_143"/>
   <path stroke="null" d="m575.64817,175.53554a63.43659,59.96176 0 0 0 -89.7026,0a63.43659,59.96176 0 0 0 -89.7026,84.80115l89.7026,84.78901l89.7026,-84.78901a63.43659,59.96176 0 0 0 0,-84.80115z" opacity="0.2" id="svg_144"/>
   <path stroke="null" d="m405.49065,251.58341a50.3357,47.57849 0 1 1 71.19438,-67.2946l9.26054,8.75328l9.26054,-8.75328a50.3357,47.57849 0 1 1 71.19438,67.2946l-80.45491,76.04788l-80.45491,-76.04788z" fill="#407BFF" id="svg_145"/>
   <path stroke="null" d="m420.56952,209.74737l22.11739,0l0,5.49963l-7.42384,0l0,16.81455l-7.28256,0l0,-16.75384l-7.411,0l0,-5.56033z" fill="#fff" id="svg_146"/>
   <path stroke="null" d="m446.05205,209.74737l7.28256,0l0,7.74562l7.95045,0l0,-7.78204l7.30824,0l0,22.3506l-7.30824,0l0,-8.99609l-7.95045,0l0,8.99609l-7.28256,0l0,-22.31418z" fill="#fff" id="svg_147"/>
   <path stroke="null" d="m487.84647,228.32228l-8.2587,0l-1.14312,3.64214l-7.43669,0l8.84953,-22.25347l7.9376,0l8.84953,22.3506l-7.6165,0l-1.18165,-3.73926zm-1.50275,-4.85619l-2.5688,-8.00057l-2.5688,8.00057l5.13761,0z" fill="#fff" id="svg_148"/>
   <path stroke="null" d="m499.00792,209.74737l6.79448,0l8.86237,12.31043l0,-12.31043l6.8587,0l0,22.31418l-6.8587,0l-8.81099,-12.22545l0,12.22545l-6.84586,0l0,-22.31418z" fill="#fff" id="svg_149"/>
   <path stroke="null" d="m526.39137,209.74737l7.28256,0l0,8.41334l7.6165,-8.41334l9.67154,0l-8.5798,8.4012l8.99081,13.91297l-8.99081,0l-4.97063,-9.15391l-3.75045,3.72712l0,5.42679l-7.28256,0l0.01284,-22.31418z" fill="#fff" id="svg_150"/>
   <path stroke="null" d="m446.41168,247.05502l8.07889,0l4.73944,7.51495l4.75229,-7.51495l8.04035,0l-9.15778,12.9296l0,9.32388l-7.28256,0l0,-9.32388l-9.17063,-12.9296z" fill="#fff" id="svg_151"/>
   <path stroke="null" d="m471.4832,258.19997a11.14861,10.53792 0 0 1 12.15044,-11.5213c3.91742,0 6.94861,0.99552 9.06787,2.98655a11.86787,11.21779 0 0 1 3.17247,8.35264a14.51374,13.71873 0 0 1 -1.38715,6.39803a9.83852,9.2996 0 0 1 -4.02018,3.88495a13.26787,12.5411 0 0 1 -6.5376,1.39615a15.07887,14.25291 0 0 1 -6.60182,-1.21405a9.91558,9.37244 0 0 1 -4.22568,-3.79997a13.33209,12.6018 0 0 1 -1.61835,-6.48301zm7.26971,0a7.9376,7.50281 0 0 0 1.2844,4.85619a5.00917,4.73478 0 0 0 7.24402,0c0.84771,-0.9591 1.2844,-2.68304 1.2844,-5.18398a7.25687,6.85936 0 0 0 -1.2844,-4.5891a4.59816,4.34629 0 0 0 -3.63486,-1.44472a4.4055,4.16418 0 0 0 -3.5321,1.469a7.9376,7.50281 0 0 0 -1.36147,4.91689l0,-0.02428z" fill="#fff" id="svg_152"/>
   <path stroke="null" d="m515.11432,247.05502l7.26971,0l0,13.25739a11.7009,11.05996 0 0 1 -0.65504,3.72712a8.56696,8.09769 0 0 1 -2.0422,3.0594a8.14311,7.69706 0 0 1 -2.91559,1.84535a14.57796,13.77943 0 0 1 -5.13761,0.75271a33.29169,31.46809 0 0 1 -3.75045,-0.23067a9.69723,9.16605 0 0 1 -3.40366,-0.91053a8.34861,7.8913 0 0 1 -2.49174,-1.91819a7.39815,6.99291 0 0 1 -1.55413,-2.56164a13.99998,13.23311 0 0 1 -0.66789,-3.76354l0,-13.25739l7.25687,0l0,13.57304a4.16146,3.93351 0 0 0 1.06605,2.85301a4.611,4.35843 0 0 0 5.90825,0a4.0844,3.86067 0 0 0 1.06605,-2.86515l0.05138,-13.5609z" fill="#fff" id="svg_153"/>
  </g>
  <text transform="matrix(1.95314 0 0 2.42325 -443.738 -33.9343)" stroke="null" xml:space="preserve" text-anchor="start" font-family="Noto Sans JP" font-size="24" stroke-width="0" id="svg_156" y="48.03074" x="332.1335" fill="#407BFF">we recieved your feedback</text>
  <path stroke="null" id="svg_157" d="m718.00002,58.3712l7.73655,-6.85599l21.19416,18.77281l35.32997,-31.28802l7.73929,6.85114l-43.06926,38.14886" stroke-width="0" fill="#407BFF"/>
  <path stroke="null" style="vector-effect: non-scaling-stroke;" id="svg_159" d="m804.46939,111.49448l0.01415,-0.15236l0.03875,0.41718l0.0646,-0.69531l0.01415,0.15225l-0.07875,0.84777" stroke-width="0" fill="#407BFF"/>
 </g>

</svg>